<svg xmlns="http://www.w3.org/2000/svg" xmlns:xlink="http://www.w3.org/1999/xlink" width="224.88" viewBox="0 0 224.88 150" height="150" version="1.0"><defs><clipPath id="a"><path d="M 5.488281 40.496094 L 25 40.496094 L 25 123 L 5.488281 123 Z M 5.488281 40.496094"/></clipPath><clipPath id="b"><path d="M 5.488281 41 L 25 41 L 25 123 L 5.488281 123 Z M 5.488281 41"/></clipPath><clipPath id="c"><path d="M 16 40.496094 L 35 40.496094 L 35 104 L 16 104 Z M 16 40.496094"/></clipPath><clipPath id="d"><path d="M 5.488281 59 L 17 59 L 17 125 L 5.488281 125 Z M 5.488281 59"/></clipPath><clipPath id="e"><path d="M 5.488281 64 L 17 64 L 17 71 L 5.488281 71 Z M 5.488281 64"/></clipPath><clipPath id="f"><path d="M 5.488281 118 L 17 118 L 17 122 L 5.488281 122 Z M 5.488281 118"/></clipPath><clipPath id="g"><path d="M 5.488281 116 L 17 116 L 17 120 L 5.488281 120 Z M 5.488281 116"/></clipPath><clipPath id="h"><path d="M 5.488281 114 L 17 114 L 17 118 L 5.488281 118 Z M 5.488281 114"/></clipPath><clipPath id="i"><path d="M 17 40.496094 L 36 40.496094 L 36 123 L 17 123 Z M 17 40.496094"/></clipPath><clipPath id="j"><path d="M 28 40.496094 L 47 40.496094 L 47 104 L 28 104 Z M 28 40.496094"/></clipPath><clipPath id="k"><path d="M 28 40.496094 L 48 40.496094 L 48 123 L 28 123 Z M 28 40.496094"/></clipPath><clipPath id="l"><path d="M 39 40.496094 L 59 40.496094 L 59 104 L 39 104 Z M 39 40.496094"/></clipPath><clipPath id="m"><path d="M 40 40.496094 L 59 40.496094 L 59 123 L 40 123 Z M 40 40.496094"/></clipPath><clipPath id="n"><path d="M 51 40.496094 L 70 40.496094 L 70 104 L 51 104 Z M 51 40.496094"/></clipPath><clipPath id="o"><path d="M 52 40.496094 L 71 40.496094 L 71 123 L 52 123 Z M 52 40.496094"/></clipPath><clipPath id="p"><path d="M 62 40.496094 L 82 40.496094 L 82 104 L 62 104 Z M 62 40.496094"/></clipPath><clipPath id="q"><path d="M 67 50 L 112.683594 50 L 112.683594 126 L 67 126 Z M 67 50"/></clipPath><g id="r"><path d="M 8.390625 -0.84375 C 10.546875 -0.84375 12.207031 -1.363281 13.375 -2.40625 C 14.550781 -3.457031 15.140625 -5.003906 15.140625 -7.046875 C 15.140625 -9.085938 14.644531 -10.671875 13.65625 -11.796875 C 12.675781 -12.921875 11.410156 -13.484375 9.859375 -13.484375 C 8.304688 -13.484375 6.890625 -12.84375 5.609375 -11.5625 C 5.085938 -11.039062 4.613281 -10.414062 4.1875 -9.6875 L 4.1875 -1.265625 C 4.1875 -0.984375 4.328125 -0.84375 4.609375 -0.84375 Z M 4.609375 0 C 4.328125 0 4.1875 0.140625 4.1875 0.421875 L 4.1875 4.359375 C 4.1875 4.628906 4.328125 4.765625 4.609375 4.765625 L 6.84375 4.765625 C 7.125 4.765625 7.265625 4.90625 7.265625 5.1875 C 7.265625 5.46875 7.125 5.609375 6.84375 5.609375 L 0.953125 5.609375 C 0.671875 5.609375 0.53125 5.46875 0.53125 5.1875 C 0.53125 4.90625 0.671875 4.765625 0.953125 4.765625 L 2.921875 4.765625 C 3.203125 4.765625 3.34375 4.628906 3.34375 4.359375 L 3.34375 -12.78125 C 3.34375 -13.0625 3.203125 -13.203125 2.921875 -13.203125 L 0.953125 -13.203125 C 0.671875 -13.203125 0.53125 -13.34375 0.53125 -13.625 C 0.53125 -13.894531 0.671875 -14.03125 0.953125 -14.03125 L 3.765625 -14.03125 C 4.046875 -14.03125 4.1875 -13.894531 4.1875 -13.625 L 4.1875 -12.046875 C 4.1875 -11.859375 4.222656 -11.726562 4.296875 -11.65625 C 4.367188 -11.582031 4.484375 -11.617188 4.640625 -11.765625 C 5.097656 -12.359375 5.773438 -12.929688 6.671875 -13.484375 C 7.578125 -14.035156 8.617188 -14.3125 9.796875 -14.3125 C 11.671875 -14.3125 13.164062 -13.648438 14.28125 -12.328125 C 15.40625 -11.015625 15.96875 -9.242188 15.96875 -7.015625 C 15.96875 -4.785156 15.296875 -3.054688 13.953125 -1.828125 C 12.609375 -0.609375 10.753906 0 8.390625 0 Z M 4.609375 0"/></g><g id="s"><path d="M 0.734375 -14.03125 L 3.53125 -14.03125 C 3.8125 -14.03125 3.953125 -13.894531 3.953125 -13.625 L 3.953125 -5.328125 C 3.953125 -3.742188 4.363281 -2.550781 5.1875 -1.75 C 6.019531 -0.957031 7.144531 -0.5625 8.5625 -0.5625 C 9.988281 -0.5625 11.328125 -1.1875 12.578125 -2.4375 C 13.140625 -3.019531 13.632812 -3.660156 14.0625 -4.359375 L 14.0625 -12.78125 C 14.0625 -13.0625 13.921875 -13.203125 13.640625 -13.203125 L 11.6875 -13.203125 C 11.40625 -13.203125 11.265625 -13.335938 11.265625 -13.609375 C 11.265625 -13.890625 11.40625 -14.03125 11.6875 -14.03125 L 14.484375 -14.03125 C 14.765625 -14.03125 14.90625 -13.894531 14.90625 -13.625 L 14.90625 -1.265625 C 14.90625 -0.984375 15.046875 -0.84375 15.328125 -0.84375 L 17.296875 -0.84375 C 17.578125 -0.84375 17.71875 -0.703125 17.71875 -0.421875 C 17.71875 -0.140625 17.578125 0 17.296875 0 L 14.484375 0 C 14.203125 0 14.0625 -0.140625 14.0625 -0.421875 L 14.0625 -2 C 14.0625 -2.1875 14.023438 -2.316406 13.953125 -2.390625 C 13.878906 -2.460938 13.769531 -2.425781 13.625 -2.28125 C 12.101562 -0.570312 10.453125 0.28125 8.671875 0.28125 C 6.898438 0.28125 5.53125 -0.195312 4.5625 -1.15625 C 3.59375 -2.125 3.109375 -3.515625 3.109375 -5.328125 L 3.109375 -12.78125 C 3.109375 -13.0625 2.972656 -13.203125 2.703125 -13.203125 L 0.734375 -13.203125 C 0.453125 -13.203125 0.3125 -13.335938 0.3125 -13.609375 C 0.3125 -13.890625 0.453125 -14.03125 0.734375 -14.03125 Z M 0.734375 -14.03125"/></g><g id="t"><path d="M 8.140625 -0.5625 C 9.765625 -0.5625 11.015625 -0.847656 11.890625 -1.421875 C 12.765625 -1.992188 13.203125 -2.738281 13.203125 -3.65625 C 13.203125 -4.882812 12.3125 -5.707031 10.53125 -6.125 C 9.707031 -6.3125 8.710938 -6.488281 7.546875 -6.65625 C 6.410156 -6.820312 5.578125 -6.976562 5.046875 -7.125 C 3.929688 -7.425781 3.09375 -7.84375 2.53125 -8.375 C 1.96875 -8.914062 1.6875 -9.675781 1.6875 -10.65625 C 1.6875 -11.632812 2.1875 -12.488281 3.1875 -13.21875 C 4.1875 -13.945312 5.582031 -14.3125 7.375 -14.3125 C 9.175781 -14.3125 10.78125 -13.613281 12.1875 -12.21875 C 12.351562 -12.03125 12.46875 -11.988281 12.53125 -12.09375 C 12.601562 -12.207031 12.640625 -12.34375 12.640625 -12.5 L 12.640625 -13.625 C 12.640625 -13.894531 12.78125 -14.03125 13.0625 -14.03125 C 13.34375 -14.03125 13.484375 -13.894531 13.484375 -13.625 L 13.484375 -9.125 C 13.484375 -8.84375 13.34375 -8.703125 13.0625 -8.703125 C 12.78125 -8.703125 12.640625 -8.84375 12.640625 -9.125 L 12.640625 -10.53125 C 11.828125 -11.59375 10.796875 -12.425781 9.546875 -13.03125 C 8.890625 -13.332031 8.148438 -13.484375 7.328125 -13.484375 C 5.796875 -13.484375 4.613281 -13.207031 3.78125 -12.65625 C 2.945312 -12.101562 2.53125 -11.40625 2.53125 -10.5625 C 2.53125 -9.71875 2.890625 -9.066406 3.609375 -8.609375 C 4.328125 -8.148438 5.425781 -7.804688 6.90625 -7.578125 C 7.539062 -7.460938 8.1875 -7.359375 8.84375 -7.265625 C 9.5 -7.171875 10.085938 -7.070312 10.609375 -6.96875 C 11.691406 -6.71875 12.53125 -6.335938 13.125 -5.828125 C 13.726562 -5.328125 14.03125 -4.554688 14.03125 -3.515625 C 14.03125 -2.484375 13.539062 -1.59375 12.5625 -0.84375 C 11.582031 -0.09375 10.109375 0.28125 8.140625 0.28125 C 6.609375 0.28125 5.1875 -0.164062 3.875 -1.0625 C 3.5 -1.320312 3.207031 -1.5625 3 -1.78125 C 2.800781 -2 2.671875 -2.050781 2.609375 -1.9375 C 2.554688 -1.820312 2.53125 -1.691406 2.53125 -1.546875 L 2.53125 -0.421875 C 2.53125 -0.140625 2.390625 0 2.109375 0 C 1.828125 0 1.6875 -0.140625 1.6875 -0.421875 L 1.6875 -4.90625 C 1.6875 -5.1875 1.828125 -5.328125 2.109375 -5.328125 C 2.390625 -5.328125 2.53125 -5.1875 2.53125 -4.90625 L 2.53125 -3.515625 C 3.289062 -2.421875 4.335938 -1.585938 5.671875 -1.015625 C 6.359375 -0.710938 7.179688 -0.5625 8.140625 -0.5625 Z M 8.140625 -0.5625"/></g><g id="u"><path d="M 10.53125 -1.96875 C 10.71875 -2.15625 10.882812 -2.171875 11.03125 -2.015625 C 11.1875 -1.867188 11.265625 -1.75 11.265625 -1.65625 C 11.273438 -1.5625 11.207031 -1.441406 11.0625 -1.296875 C 10.613281 -0.847656 10.164062 -0.507812 9.71875 -0.28125 C 8.550781 0.113281 7.882812 0.304688 7.71875 0.296875 C 7.550781 0.285156 7.457031 0.28125 7.4375 0.28125 C 6.125 0.28125 5.09375 -0.140625 4.34375 -0.984375 C 3.601562 -1.828125 3.234375 -3.046875 3.234375 -4.640625 L 3.234375 -12.78125 C 3.234375 -13.0625 3.09375 -13.203125 2.8125 -13.203125 L 0.84375 -13.203125 C 0.5625 -13.203125 0.421875 -13.34375 0.421875 -13.625 C 0.421875 -13.894531 0.5625 -14.03125 0.84375 -14.03125 L 2.8125 -14.03125 C 3.09375 -14.03125 3.234375 -14.171875 3.234375 -14.453125 L 3.234375 -19.234375 C 3.234375 -19.515625 3.375 -19.65625 3.65625 -19.65625 C 3.9375 -19.65625 4.078125 -19.515625 4.078125 -19.234375 L 4.078125 -14.453125 C 4.078125 -14.171875 4.21875 -14.03125 4.5 -14.03125 L 9.265625 -14.03125 C 9.546875 -14.03125 9.6875 -13.894531 9.6875 -13.625 C 9.6875 -13.34375 9.546875 -13.203125 9.265625 -13.203125 L 4.5 -13.203125 C 4.21875 -13.203125 4.078125 -13.0625 4.078125 -12.78125 L 4.078125 -4.640625 C 4.078125 -3.285156 4.375 -2.265625 4.96875 -1.578125 C 5.570312 -0.898438 6.398438 -0.5625 7.453125 -0.5625 C 8.515625 -0.5625 9.539062 -1.03125 10.53125 -1.96875 Z M 10.53125 -1.96875"/></g><g id="v"><path d="M 11.828125 -6.875 C 11.828125 -7.15625 11.6875 -7.296875 11.40625 -7.296875 L 6.765625 -7.296875 C 5.140625 -7.296875 3.9375 -6.976562 3.15625 -6.34375 C 2.382812 -5.707031 2 -4.894531 2 -3.90625 C 2 -2.925781 2.359375 -2.125 3.078125 -1.5 C 3.796875 -0.875 4.882812 -0.5625 6.34375 -0.5625 C 8.15625 -0.5625 9.753906 -1.476562 11.140625 -3.3125 C 11.390625 -3.632812 11.617188 -3.984375 11.828125 -4.359375 Z M 7.4375 -14.3125 C 9.007812 -14.3125 10.269531 -13.867188 11.21875 -12.984375 C 12.175781 -12.097656 12.65625 -11 12.65625 -9.6875 L 12.65625 -1.265625 C 12.65625 -0.984375 12.796875 -0.84375 13.078125 -0.84375 L 15.046875 -0.84375 C 15.328125 -0.84375 15.46875 -0.703125 15.46875 -0.421875 C 15.46875 -0.140625 15.328125 0 15.046875 0 L 12.234375 0 C 11.960938 0 11.828125 -0.140625 11.828125 -0.421875 L 11.828125 -2 C 11.828125 -2.1875 11.785156 -2.316406 11.703125 -2.390625 C 11.628906 -2.460938 11.519531 -2.425781 11.375 -2.28125 C 10.863281 -1.632812 10.160156 -1.046875 9.265625 -0.515625 C 8.367188 0.015625 7.429688 0.28125 6.453125 0.28125 C 4.710938 0.28125 3.394531 -0.101562 2.5 -0.875 C 1.601562 -1.65625 1.15625 -2.660156 1.15625 -3.890625 C 1.15625 -5.128906 1.664062 -6.144531 2.6875 -6.9375 C 3.71875 -7.738281 5.078125 -8.140625 6.765625 -8.140625 L 11.40625 -8.140625 C 11.6875 -8.140625 11.828125 -8.28125 11.828125 -8.5625 L 11.828125 -9.6875 C 11.828125 -10.769531 11.410156 -11.671875 10.578125 -12.390625 C 9.753906 -13.117188 8.742188 -13.484375 7.546875 -13.484375 C 6.347656 -13.484375 5.363281 -13.316406 4.59375 -12.984375 C 3.832031 -12.660156 3.296875 -12.375 2.984375 -12.125 C 2.679688 -11.882812 2.445312 -11.875 2.28125 -12.09375 C 2.125 -12.320312 2.148438 -12.507812 2.359375 -12.65625 C 3.703125 -13.757812 5.394531 -14.3125 7.4375 -14.3125 Z M 7.4375 -14.3125"/></g><g id="w"><path d="M 0.953125 -0.84375 L 2.921875 -0.84375 C 3.203125 -0.84375 3.34375 -0.984375 3.34375 -1.265625 L 3.34375 -18.390625 C 3.34375 -18.671875 3.203125 -18.8125 2.921875 -18.8125 L 0.953125 -18.8125 C 0.671875 -18.8125 0.53125 -18.953125 0.53125 -19.234375 C 0.53125 -19.515625 0.671875 -19.65625 0.953125 -19.65625 L 3.765625 -19.65625 C 4.046875 -19.65625 4.1875 -19.515625 4.1875 -19.234375 L 4.1875 -5.421875 L 10.921875 -12.78125 C 11.035156 -12.875 11.078125 -12.96875 11.046875 -13.0625 C 11.015625 -13.15625 10.925781 -13.203125 10.78125 -13.203125 L 9.203125 -13.203125 C 8.921875 -13.203125 8.78125 -13.335938 8.78125 -13.609375 C 8.78125 -13.890625 8.921875 -14.03125 9.203125 -14.03125 L 14.71875 -14.03125 C 15 -14.03125 15.140625 -13.890625 15.140625 -13.609375 C 15.140625 -13.335938 15 -13.203125 14.71875 -13.203125 L 12.921875 -13.203125 C 12.710938 -13.203125 12.46875 -13.0625 12.1875 -12.78125 L 7.96875 -8.203125 L 13.03125 -1.265625 C 13.269531 -0.984375 13.503906 -0.84375 13.734375 -0.84375 L 15.5625 -0.84375 C 15.832031 -0.84375 15.96875 -0.703125 15.96875 -0.421875 C 15.96875 -0.140625 15.832031 0 15.5625 0 L 10.21875 0 C 9.9375 0 9.796875 -0.140625 9.796875 -0.421875 C 9.796875 -0.703125 9.9375 -0.84375 10.21875 -0.84375 L 11.765625 -0.84375 C 12.097656 -0.84375 12.144531 -0.984375 11.90625 -1.265625 L 7.359375 -7.53125 L 4.1875 -4.046875 L 4.1875 -1.265625 C 4.1875 -0.984375 4.328125 -0.84375 4.609375 -0.84375 L 6.296875 -0.84375 C 6.566406 -0.84375 6.703125 -0.703125 6.703125 -0.421875 C 6.703125 -0.140625 6.566406 0 6.296875 0 L 0.953125 0 C 0.671875 0 0.53125 -0.140625 0.53125 -0.421875 C 0.53125 -0.703125 0.671875 -0.84375 0.953125 -0.84375 Z M 0.953125 -0.84375"/></g><g id="x"><path d="M 3.34375 -1.734375 C 2.070312 -3.085938 1.4375 -4.847656 1.4375 -7.015625 C 1.4375 -9.191406 2.070312 -10.953125 3.34375 -12.296875 C 4.613281 -13.640625 6.269531 -14.3125 8.3125 -14.3125 C 10.351562 -14.3125 12.007812 -13.640625 13.28125 -12.296875 C 14.550781 -10.953125 15.1875 -9.191406 15.1875 -7.015625 C 15.1875 -4.847656 14.550781 -3.085938 13.28125 -1.734375 C 12.007812 -0.390625 10.351562 0.28125 8.3125 0.28125 C 6.269531 0.28125 4.613281 -0.390625 3.34375 -1.734375 Z M 8.3125 -13.484375 C 6.5 -13.484375 5.039062 -12.890625 3.9375 -11.703125 C 2.832031 -10.523438 2.28125 -8.957031 2.28125 -7 C 2.28125 -5.050781 2.828125 -3.488281 3.921875 -2.3125 C 5.015625 -1.144531 6.476562 -0.5625 8.3125 -0.5625 C 10.144531 -0.5625 11.609375 -1.144531 12.703125 -2.3125 C 13.796875 -3.488281 14.34375 -5.050781 14.34375 -7 C 14.34375 -8.957031 13.789062 -10.523438 12.6875 -11.703125 C 11.582031 -12.890625 10.125 -13.484375 8.3125 -13.484375 Z M 8.3125 -13.484375"/></g><g id="y"><path d="M 1.4375 -0.84375 L 3.390625 -0.84375 C 3.671875 -0.84375 3.8125 -0.984375 3.8125 -1.265625 L 3.8125 -12.78125 C 3.8125 -13.0625 3.671875 -13.203125 3.390625 -13.203125 L 1.4375 -13.203125 C 1.15625 -13.203125 1.015625 -13.335938 1.015625 -13.609375 C 1.015625 -13.890625 1.15625 -14.03125 1.4375 -14.03125 L 4.234375 -14.03125 C 4.515625 -14.03125 4.65625 -13.894531 4.65625 -13.625 L 4.65625 -12.046875 C 4.65625 -11.859375 4.691406 -11.726562 4.765625 -11.65625 C 4.847656 -11.582031 4.960938 -11.617188 5.109375 -11.765625 C 6.628906 -13.460938 8.273438 -14.3125 10.046875 -14.3125 C 11.828125 -14.3125 13.195312 -13.828125 14.15625 -12.859375 C 15.125 -11.898438 15.609375 -10.515625 15.609375 -8.703125 L 15.609375 -1.265625 C 15.609375 -0.984375 15.75 -0.84375 16.03125 -0.84375 L 18 -0.84375 C 18.28125 -0.84375 18.421875 -0.703125 18.421875 -0.421875 C 18.421875 -0.140625 18.28125 0 18 0 L 12.65625 0 C 12.375 0 12.234375 -0.140625 12.234375 -0.421875 C 12.234375 -0.703125 12.375 -0.84375 12.65625 -0.84375 L 14.34375 -0.84375 C 14.625 -0.84375 14.765625 -0.984375 14.765625 -1.265625 L 14.765625 -8.703125 C 14.765625 -10.296875 14.351562 -11.488281 13.53125 -12.28125 C 12.707031 -13.082031 11.582031 -13.484375 10.15625 -13.484375 C 8.738281 -13.484375 7.394531 -12.84375 6.125 -11.5625 C 5.5625 -11 5.070312 -10.375 4.65625 -9.6875 L 4.65625 -1.265625 C 4.65625 -0.984375 4.796875 -0.84375 5.078125 -0.84375 L 6.765625 -0.84375 C 7.046875 -0.84375 7.1875 -0.703125 7.1875 -0.421875 C 7.1875 -0.140625 7.046875 0 6.765625 0 L 1.4375 0 C 1.15625 0 1.015625 -0.140625 1.015625 -0.421875 C 1.015625 -0.703125 1.15625 -0.84375 1.4375 -0.84375 Z M 1.4375 -0.84375"/></g><g id="z"><path d="M 0.953125 0 C 0.671875 0 0.53125 -0.140625 0.53125 -0.421875 C 0.53125 -0.703125 0.671875 -0.84375 0.953125 -0.84375 L 2.921875 -0.84375 C 3.203125 -0.84375 3.34375 -0.984375 3.34375 -1.265625 L 3.34375 -18.390625 C 3.34375 -18.671875 3.203125 -18.8125 2.921875 -18.8125 L 0.953125 -18.8125 C 0.671875 -18.8125 0.53125 -18.953125 0.53125 -19.234375 C 0.53125 -19.515625 0.671875 -19.65625 0.953125 -19.65625 L 3.765625 -19.65625 C 4.046875 -19.65625 4.1875 -19.515625 4.1875 -19.234375 L 4.1875 -1.265625 C 4.1875 -0.984375 4.328125 -0.84375 4.609375 -0.84375 L 6.5625 -0.84375 C 6.84375 -0.84375 6.984375 -0.703125 6.984375 -0.421875 C 6.984375 -0.140625 6.84375 0 6.5625 0 Z M 0.953125 0"/></g><g id="A"><path d="M 1.453125 0 C 1.171875 0 1.03125 -0.140625 1.03125 -0.421875 C 1.03125 -0.703125 1.171875 -0.84375 1.453125 -0.84375 L 3.421875 -0.84375 C 3.703125 -0.84375 3.84375 -0.984375 3.84375 -1.265625 L 3.84375 -12.78125 C 3.84375 -13.0625 3.703125 -13.203125 3.421875 -13.203125 L 1.453125 -13.203125 C 1.171875 -13.203125 1.03125 -13.335938 1.03125 -13.609375 C 1.03125 -13.890625 1.171875 -14.03125 1.453125 -14.03125 L 4.265625 -14.03125 C 4.546875 -14.03125 4.6875 -13.894531 4.6875 -13.625 L 4.6875 -1.265625 C 4.6875 -0.984375 4.828125 -0.84375 5.109375 -0.84375 L 7.078125 -0.84375 C 7.359375 -0.84375 7.5 -0.703125 7.5 -0.421875 C 7.5 -0.140625 7.359375 0 7.078125 0 Z M 3.328125 -16.609375 C 3.109375 -16.828125 3 -17.09375 3 -17.40625 C 3 -17.726562 3.109375 -17.992188 3.328125 -18.203125 C 3.546875 -18.421875 3.8125 -18.53125 4.125 -18.53125 C 4.445312 -18.53125 4.710938 -18.421875 4.921875 -18.203125 C 5.140625 -17.992188 5.25 -17.726562 5.25 -17.40625 C 5.25 -17.09375 5.140625 -16.828125 4.921875 -16.609375 C 4.710938 -16.390625 4.445312 -16.28125 4.125 -16.28125 C 3.8125 -16.28125 3.546875 -16.390625 3.328125 -16.609375 Z M 3.328125 -16.609375"/></g><g id="B"><path d="M 12.46875 -1.96875 C 12.769531 -2.1875 13 -2.367188 13.15625 -2.515625 C 13.3125 -2.671875 13.4375 -2.722656 13.53125 -2.671875 C 13.625 -2.628906 13.738281 -2.53125 13.875 -2.375 C 14.019531 -2.21875 13.984375 -2.046875 13.765625 -1.859375 C 13.085938 -1.273438 12.304688 -0.769531 11.421875 -0.34375 C 10.546875 0.0703125 9.425781 0.28125 8.0625 0.28125 C 6.070312 0.28125 4.472656 -0.398438 3.265625 -1.765625 C 2.054688 -3.128906 1.453125 -4.878906 1.453125 -7.015625 C 1.453125 -9.148438 2.054688 -10.898438 3.265625 -12.265625 C 4.472656 -13.628906 6.054688 -14.3125 8.015625 -14.3125 C 9.972656 -14.3125 11.566406 -13.695312 12.796875 -12.46875 C 14.035156 -11.226562 14.65625 -9.738281 14.65625 -8 L 14.65625 -7.578125 C 14.65625 -7.015625 14.375 -6.734375 13.8125 -6.734375 L 2.75 -6.734375 C 2.4375 -6.734375 2.296875 -6.59375 2.328125 -6.3125 C 2.441406 -4.6875 3 -3.320312 4 -2.21875 C 5 -1.113281 6.375 -0.5625 8.125 -0.5625 C 9.875 -0.5625 11.320312 -1.03125 12.46875 -1.96875 Z M 2.359375 -7.921875 C 2.359375 -7.691406 2.488281 -7.578125 2.75 -7.578125 L 13.390625 -7.578125 C 13.671875 -7.578125 13.8125 -7.71875 13.8125 -8 C 13.8125 -9.5 13.265625 -10.785156 12.171875 -11.859375 C 11.078125 -12.941406 9.691406 -13.484375 8.015625 -13.484375 C 6.335938 -13.484375 4.972656 -12.890625 3.921875 -11.703125 C 2.878906 -10.523438 2.359375 -9.265625 2.359375 -7.921875 Z M 2.359375 -7.921875"/></g><g id="C"><path d="M 3.53125 -4.359375 C 3.96875 -3.609375 4.445312 -2.96875 4.96875 -2.4375 C 6.21875 -1.1875 7.625 -0.5625 9.1875 -0.5625 C 10.757812 -0.5625 12.035156 -1.125 13.015625 -2.25 C 13.992188 -3.382812 14.484375 -4.96875 14.484375 -7 C 14.484375 -9.03125 13.894531 -10.570312 12.71875 -11.625 C 11.539062 -12.675781 9.882812 -13.203125 7.75 -13.203125 L 3.953125 -13.203125 C 3.671875 -13.203125 3.53125 -13.0625 3.53125 -12.78125 Z M 3.53125 -14.453125 C 3.53125 -14.171875 3.671875 -14.03125 3.953125 -14.03125 L 7.75 -14.03125 C 10.125 -14.03125 11.976562 -13.425781 13.3125 -12.21875 C 14.65625 -11 15.328125 -9.253906 15.328125 -6.984375 C 15.328125 -4.742188 14.765625 -2.972656 13.640625 -1.671875 C 12.523438 -0.367188 11.03125 0.28125 9.15625 0.28125 C 7.988281 0.28125 6.941406 0.0078125 6.015625 -0.53125 C 5.128906 -1.09375 4.453125 -1.675781 3.984375 -2.28125 C 3.835938 -2.425781 3.722656 -2.460938 3.640625 -2.390625 C 3.566406 -2.316406 3.53125 -2.1875 3.53125 -2 L 3.53125 -0.421875 C 3.53125 -0.140625 3.390625 0 3.109375 0 C 2.835938 0 2.703125 -0.140625 2.703125 -0.421875 L 2.703125 -18.390625 C 2.703125 -18.671875 2.5625 -18.8125 2.28125 -18.8125 L 0.3125 -18.8125 C 0.03125 -18.8125 -0.109375 -18.953125 -0.109375 -19.234375 C -0.109375 -19.515625 0.03125 -19.65625 0.3125 -19.65625 L 3.109375 -19.65625 C 3.390625 -19.65625 3.53125 -19.515625 3.53125 -19.234375 Z M 3.53125 -14.453125"/></g><g id="D"><path d="M 11.6875 -13.484375 C 9.320312 -13.484375 7.351562 -12.554688 5.78125 -10.703125 C 5.332031 -10.171875 4.957031 -9.644531 4.65625 -9.125 L 4.65625 -1.265625 C 4.65625 -0.984375 4.796875 -0.84375 5.078125 -0.84375 L 7.328125 -0.84375 C 7.609375 -0.84375 7.75 -0.703125 7.75 -0.421875 C 7.75 -0.140625 7.609375 0 7.328125 0 L 1.4375 0 C 1.15625 0 1.015625 -0.140625 1.015625 -0.421875 C 1.015625 -0.703125 1.15625 -0.84375 1.4375 -0.84375 L 3.390625 -0.84375 C 3.671875 -0.84375 3.8125 -0.984375 3.8125 -1.265625 L 3.8125 -12.78125 C 3.8125 -13.0625 3.671875 -13.203125 3.390625 -13.203125 L 1.4375 -13.203125 C 1.15625 -13.203125 1.015625 -13.34375 1.015625 -13.625 C 1.015625 -13.894531 1.15625 -14.03125 1.4375 -14.03125 L 4.234375 -14.03125 C 4.515625 -14.03125 4.65625 -13.894531 4.65625 -13.625 L 4.65625 -11.40625 C 4.65625 -10.9375 4.851562 -10.925781 5.25 -11.375 C 5.945312 -12.15625 6.847656 -12.835938 7.953125 -13.421875 C 9.066406 -14.015625 10.3125 -14.3125 11.6875 -14.3125 L 13.0625 -14.3125 C 13.34375 -14.3125 13.484375 -14.175781 13.484375 -13.90625 L 13.484375 -10.390625 C 13.484375 -10.109375 13.34375 -9.96875 13.0625 -9.96875 C 12.78125 -9.96875 12.640625 -10.109375 12.640625 -10.390625 L 12.640625 -13.0625 C 12.640625 -13.34375 12.5 -13.484375 12.21875 -13.484375 Z M 11.6875 -13.484375"/></g><g id="E"><path d="M 7.390625 4.515625 C 6.921875 5.046875 6.460938 5.40625 6.015625 5.59375 C 5.578125 5.789062 5.097656 5.890625 4.578125 5.890625 C 3.691406 5.890625 2.945312 5.722656 2.34375 5.390625 C 1.75 5.066406 1.296875 4.703125 0.984375 4.296875 C 0.753906 4.066406 0.734375 3.851562 0.921875 3.65625 C 1.109375 3.46875 1.304688 3.46875 1.515625 3.65625 C 1.835938 3.96875 2.234375 4.273438 2.703125 4.578125 C 3.179688 4.890625 3.816406 5.046875 4.609375 5.046875 C 5.410156 5.046875 6.09375 4.722656 6.65625 4.078125 C 7.21875 3.429688 7.769531 2.398438 8.3125 0.984375 L 8.59375 0.25 C 8.664062 0.0078125 8.664062 -0.210938 8.59375 -0.421875 L 2.78125 -12.78125 C 2.632812 -13.0625 2.445312 -13.203125 2.21875 -13.203125 L 0.390625 -13.203125 C 0.109375 -13.203125 -0.03125 -13.34375 -0.03125 -13.625 C -0.03125 -13.894531 0.109375 -14.03125 0.390625 -14.03125 L 5.734375 -14.03125 C 6.015625 -14.03125 6.15625 -13.894531 6.15625 -13.625 C 6.15625 -13.34375 6.015625 -13.203125 5.734375 -13.203125 L 3.984375 -13.203125 C 3.648438 -13.203125 3.554688 -13.0625 3.703125 -12.78125 L 9.015625 -1.6875 C 9.109375 -1.425781 9.210938 -1.425781 9.328125 -1.6875 L 13.625 -12.78125 C 13.75 -13.0625 13.65625 -13.203125 13.34375 -13.203125 L 11.59375 -13.203125 C 11.3125 -13.203125 11.171875 -13.34375 11.171875 -13.625 C 11.171875 -13.894531 11.3125 -14.03125 11.59375 -14.03125 L 16.9375 -14.03125 C 17.21875 -14.03125 17.359375 -13.894531 17.359375 -13.625 C 17.359375 -13.34375 17.21875 -13.203125 16.9375 -13.203125 L 15.109375 -13.203125 C 14.859375 -13.203125 14.671875 -13.0625 14.546875 -12.78125 L 9.203125 0.984375 C 8.472656 2.816406 7.867188 3.992188 7.390625 4.515625 Z M 7.390625 4.515625"/></g></defs><g clip-path="url(#a)"><path fill="#DF850E" d="M 6.5 59.375 L 6.5 120.984375 L 23.167969 103.808594 L 23.164062 42.195312 Z M 6.03125 122.597656 C 5.972656 122.597656 5.914062 122.585938 5.855469 122.566406 C 5.679688 122.492188 5.566406 122.324219 5.566406 122.132812 L 5.566406 59.1875 C 5.566406 59.066406 5.613281 58.949219 5.695312 58.863281 L 23.296875 40.722656 C 23.429688 40.589844 23.632812 40.546875 23.808594 40.617188 C 23.984375 40.6875 24.097656 40.859375 24.097656 41.046875 L 24.097656 103.996094 C 24.097656 104.113281 24.050781 104.230469 23.96875 104.316406 L 6.367188 122.457031 C 6.277344 122.546875 6.15625 122.597656 6.03125 122.597656"/></g><g clip-path="url(#b)"><path fill="#A84C0E" d="M 24.097656 103.558594 L 5.558594 122.609375 L 5.558594 60.121094 L 24.097656 41.070312 L 24.097656 103.558594"/></g><path fill="#B4A497" d="M 24.625 41.070312 L 6.082031 60.121094 L 6.082031 122.609375 L 14.542969 113.917969 L 14.542969 122.609375 L 33.085938 103.558594 L 33.085938 41.070312 L 24.625 41.070312"/><g clip-path="url(#c)"><path fill="#DF850E" d="M 17.339844 103.898438 L 17.339844 59.328125 L 34.007812 42.152344 L 34.007812 103.761719 L 33.875 103.898438 L 34.941406 102.25 L 34.941406 41.003906 C 34.941406 40.8125 34.828125 40.640625 34.652344 40.570312 C 34.476562 40.5 34.273438 40.542969 34.140625 40.679688 L 16.539062 58.820312 C 16.457031 58.90625 16.410156 59.019531 16.410156 59.140625 L 16.410156 103.898438 L 17.339844 103.898438"/></g><path fill="#A84C0E" d="M 34.941406 103.515625 L 16.402344 122.566406 L 16.402344 60.078125 L 34.941406 41.027344 L 34.941406 103.515625"/><g clip-path="url(#d)"><path fill="#F9AB0C" d="M 11.109375 60.773438 C 8.472656 60.773438 6.277344 60.097656 5.710938 59.191406 L 5.558594 59.191406 L 5.558594 122.140625 C 5.558594 123.265625 8.042969 124.179688 11.109375 124.179688 C 14.171875 124.179688 16.660156 123.265625 16.660156 122.140625 L 16.660156 59.191406 L 16.507812 59.191406 C 15.941406 60.097656 13.746094 60.773438 11.109375 60.773438"/></g><path fill="#EEDEE1" d="M 14.019531 77.664062 C 13.628906 79.261719 11.824219 80.199219 9.992188 79.753906 C 8.15625 79.304688 6.984375 77.652344 7.378906 76.050781 C 7.769531 74.453125 9.574219 73.519531 11.40625 73.964844 C 13.242188 74.410156 14.410156 76.066406 14.019531 77.664062"/><g clip-path="url(#e)"><path fill="#EEDEE1" d="M 5.558594 64.816406 L 5.558594 69.523438 C 6.902344 70.097656 8.882812 70.460938 11.109375 70.460938 C 13.332031 70.460938 15.3125 70.097656 16.660156 69.523438 L 16.660156 64.816406 C 15.3125 65.390625 13.332031 65.753906 11.109375 65.753906 C 8.886719 65.753906 6.902344 65.390625 5.558594 64.816406"/></g><g clip-path="url(#f)"><path fill="#EEDEE1" d="M 16.660156 120.28125 L 16.660156 118.972656 C 15.3125 119.546875 13.332031 119.910156 11.109375 119.910156 C 8.882812 119.910156 6.902344 119.546875 5.558594 118.972656 L 5.558594 120.277344 C 6.902344 120.851562 8.882812 121.21875 11.109375 121.21875 C 13.332031 121.21875 15.3125 120.851562 16.660156 120.28125"/></g><g clip-path="url(#g)"><path fill="#EEDEE1" d="M 16.660156 118.289062 L 16.660156 116.984375 C 15.3125 117.558594 13.332031 117.921875 11.109375 117.921875 C 8.882812 117.921875 6.902344 117.558594 5.558594 116.984375 L 5.558594 118.289062 C 6.902344 118.863281 8.882812 119.226562 11.109375 119.226562 C 13.332031 119.226562 15.3125 118.863281 16.660156 118.289062"/></g><g clip-path="url(#h)"><path fill="#EEDEE1" d="M 11.109375 117.238281 C 13.332031 117.238281 15.3125 116.875 16.660156 116.300781 L 16.660156 114.996094 C 15.3125 115.570312 13.332031 115.933594 11.109375 115.933594 C 8.886719 115.933594 6.902344 115.566406 5.558594 114.996094 L 5.558594 116.300781 C 6.902344 116.875 8.882812 117.238281 11.109375 117.238281"/></g><g clip-path="url(#i)"><path fill="#C82C22" d="M 18.132812 59.375 L 18.132812 120.984375 L 34.800781 103.808594 L 34.800781 42.195312 Z M 17.664062 122.597656 C 17.605469 122.597656 17.546875 122.585938 17.492188 122.566406 C 17.316406 122.492188 17.199219 122.324219 17.199219 122.132812 L 17.199219 59.1875 C 17.199219 59.066406 17.246094 58.949219 17.332031 58.863281 L 34.929688 40.722656 C 35.0625 40.589844 35.265625 40.546875 35.441406 40.617188 C 35.617188 40.6875 35.730469 40.859375 35.730469 41.046875 L 35.730469 103.996094 C 35.730469 104.113281 35.683594 104.230469 35.601562 104.316406 L 18 122.457031 C 17.910156 122.546875 17.789062 122.597656 17.664062 122.597656"/></g><path fill="#B51C20" d="M 35.730469 103.558594 L 17.191406 122.609375 L 17.191406 60.121094 L 35.730469 41.070312 L 35.730469 103.558594"/><path fill="#B4A497" d="M 36.257812 41.070312 L 17.714844 60.121094 L 17.714844 122.609375 L 26.175781 113.917969 L 26.175781 122.609375 L 44.71875 103.558594 L 44.71875 41.070312 L 36.257812 41.070312"/><g clip-path="url(#j)"><path fill="#C82C22" d="M 28.976562 103.898438 L 28.976562 59.328125 L 45.644531 42.152344 L 45.644531 103.761719 L 45.507812 103.898438 L 46.574219 102.25 L 46.574219 41.003906 C 46.574219 40.8125 46.460938 40.640625 46.285156 40.570312 C 46.109375 40.5 45.90625 40.542969 45.773438 40.679688 L 28.171875 58.820312 C 28.089844 58.90625 28.042969 59.019531 28.042969 59.140625 L 28.042969 103.898438 L 28.976562 103.898438"/></g><path fill="#B51C20" d="M 46.574219 103.515625 L 28.035156 122.566406 L 28.035156 60.078125 L 46.574219 41.027344 L 46.574219 103.515625"/><path fill="#F03A2A" d="M 22.742188 60.773438 C 20.105469 60.773438 17.910156 60.097656 17.34375 59.191406 L 17.191406 59.191406 L 17.191406 122.140625 C 17.191406 123.265625 19.675781 124.179688 22.742188 124.179688 C 25.808594 124.179688 28.292969 123.265625 28.292969 122.140625 L 28.292969 59.191406 L 28.140625 59.191406 C 27.574219 60.097656 25.378906 60.773438 22.742188 60.773438"/><path fill="#F9AB0C" d="M 25.652344 77.664062 C 25.261719 79.261719 23.457031 80.199219 21.625 79.753906 C 19.789062 79.304688 18.617188 77.652344 19.011719 76.050781 C 19.402344 74.453125 21.207031 73.519531 23.039062 73.964844 C 24.875 74.410156 26.042969 76.066406 25.652344 77.664062"/><path fill="#F9AB0C" d="M 17.191406 64.816406 L 17.191406 69.523438 C 18.535156 70.097656 20.519531 70.460938 22.742188 70.460938 C 24.964844 70.460938 26.949219 70.097656 28.292969 69.523438 L 28.292969 64.816406 C 26.949219 65.390625 24.964844 65.753906 22.742188 65.753906 C 20.519531 65.753906 18.535156 65.390625 17.191406 64.816406"/><path fill="#F9AB0C" d="M 28.292969 120.28125 L 28.292969 118.972656 C 26.949219 119.546875 24.964844 119.910156 22.742188 119.910156 C 20.519531 119.910156 18.535156 119.546875 17.191406 118.972656 L 17.191406 120.277344 C 18.535156 120.851562 20.519531 121.21875 22.742188 121.21875 C 24.964844 121.21875 26.949219 120.851562 28.292969 120.28125"/><path fill="#F9AB0C" d="M 28.292969 118.289062 L 28.292969 116.984375 C 26.949219 117.558594 24.964844 117.921875 22.742188 117.921875 C 20.519531 117.921875 18.535156 117.558594 17.191406 116.984375 L 17.191406 118.289062 C 18.535156 118.863281 20.519531 119.226562 22.742188 119.226562 C 24.964844 119.226562 26.949219 118.863281 28.292969 118.289062"/><path fill="#F9AB0C" d="M 22.742188 117.238281 C 24.964844 117.238281 26.949219 116.875 28.292969 116.300781 L 28.292969 114.996094 C 26.949219 115.570312 24.964844 115.933594 22.742188 115.933594 C 20.519531 115.933594 18.535156 115.566406 17.191406 114.996094 L 17.191406 116.300781 C 18.535156 116.875 20.519531 117.238281 22.742188 117.238281"/><g clip-path="url(#k)"><path fill="#A1132D" d="M 29.765625 59.375 L 29.765625 120.984375 L 46.433594 103.808594 L 46.433594 42.195312 Z M 29.296875 122.597656 C 29.238281 122.597656 29.179688 122.585938 29.125 122.566406 C 28.949219 122.492188 28.832031 122.324219 28.832031 122.132812 L 28.832031 59.1875 C 28.832031 59.066406 28.878906 58.949219 28.964844 58.863281 L 46.5625 40.722656 C 46.695312 40.589844 46.898438 40.546875 47.074219 40.617188 C 47.25 40.6875 47.363281 40.859375 47.363281 41.046875 L 47.363281 103.996094 C 47.363281 104.113281 47.320312 104.230469 47.234375 104.316406 L 29.632812 122.457031 C 29.542969 122.546875 29.421875 122.597656 29.296875 122.597656"/></g><path fill="#6F0C1B" d="M 47.363281 103.558594 L 28.824219 122.609375 L 28.824219 60.121094 L 47.363281 41.070312 L 47.363281 103.558594"/><path fill="#B4A497" d="M 47.890625 41.070312 L 29.351562 60.121094 L 29.351562 122.609375 L 37.808594 113.917969 L 37.808594 122.609375 L 56.351562 103.558594 L 56.351562 41.070312 L 47.890625 41.070312"/><g clip-path="url(#l)"><path fill="#A1132D" d="M 40.609375 103.898438 L 40.609375 59.328125 L 57.277344 42.152344 L 57.277344 103.761719 L 57.144531 103.898438 L 58.207031 102.25 L 58.207031 41.003906 C 58.207031 40.8125 58.09375 40.640625 57.917969 40.570312 C 57.742188 40.5 57.539062 40.542969 57.40625 40.679688 L 39.808594 58.820312 C 39.722656 58.90625 39.675781 59.019531 39.675781 59.140625 L 39.675781 103.898438 L 40.609375 103.898438"/></g><path fill="#6F0C1B" d="M 58.207031 103.515625 L 39.667969 122.566406 L 39.667969 60.078125 L 58.207031 41.027344 L 58.207031 103.515625"/><path fill="#D91B40" d="M 34.375 60.773438 C 31.738281 60.773438 29.542969 60.097656 28.976562 59.191406 L 28.824219 59.191406 L 28.824219 122.140625 C 28.824219 123.265625 31.308594 124.179688 34.375 124.179688 C 37.441406 124.179688 39.925781 123.265625 39.925781 122.140625 L 39.925781 59.191406 L 39.773438 59.191406 C 39.207031 60.097656 37.011719 60.773438 34.375 60.773438"/><path fill="#F9AB0C" d="M 37.285156 77.664062 C 36.894531 79.261719 35.089844 80.199219 33.257812 79.753906 C 31.421875 79.304688 30.253906 77.652344 30.644531 76.050781 C 31.035156 74.453125 32.839844 73.519531 34.671875 73.964844 C 36.507812 74.410156 37.675781 76.066406 37.285156 77.664062"/><path fill="#F9AB0C" d="M 28.824219 64.816406 L 28.824219 69.523438 C 30.167969 70.097656 32.152344 70.460938 34.375 70.460938 C 36.597656 70.460938 38.582031 70.097656 39.925781 69.523438 L 39.925781 64.816406 C 38.582031 65.390625 36.597656 65.753906 34.375 65.753906 C 32.152344 65.753906 30.167969 65.390625 28.824219 64.816406"/><path fill="#F9AB0C" d="M 39.925781 120.28125 L 39.925781 118.972656 C 38.582031 119.546875 36.597656 119.910156 34.375 119.910156 C 32.152344 119.910156 30.167969 119.546875 28.824219 118.972656 L 28.824219 120.277344 C 30.167969 120.851562 32.152344 121.21875 34.375 121.21875 C 36.597656 121.21875 38.582031 120.851562 39.925781 120.28125"/><path fill="#F9AB0C" d="M 39.925781 118.289062 L 39.925781 116.984375 C 38.582031 117.558594 36.597656 117.921875 34.375 117.921875 C 32.152344 117.921875 30.167969 117.558594 28.824219 116.984375 L 28.824219 118.289062 C 30.167969 118.863281 32.152344 119.226562 34.375 119.226562 C 36.597656 119.226562 38.582031 118.863281 39.925781 118.289062"/><path fill="#F9AB0C" d="M 34.375 117.238281 C 36.597656 117.238281 38.582031 116.875 39.925781 116.300781 L 39.925781 114.996094 C 38.582031 115.570312 36.597656 115.933594 34.375 115.933594 C 32.152344 115.933594 30.167969 115.566406 28.824219 114.996094 L 28.824219 116.300781 C 30.167969 116.875 32.152344 117.238281 34.375 117.238281"/><g clip-path="url(#m)"><path fill="#6B1F49" d="M 41.398438 59.375 L 41.398438 120.984375 L 58.066406 103.808594 L 58.066406 42.195312 Z M 40.929688 122.597656 C 40.871094 122.597656 40.8125 122.585938 40.757812 122.566406 C 40.582031 122.492188 40.464844 122.324219 40.464844 122.132812 L 40.464844 59.1875 C 40.464844 59.066406 40.511719 58.949219 40.597656 58.863281 L 58.199219 40.722656 C 58.328125 40.589844 58.53125 40.546875 58.707031 40.617188 C 58.882812 40.6875 59 40.859375 59 41.046875 L 59 103.996094 C 59 104.113281 58.953125 104.230469 58.867188 104.316406 L 41.265625 122.457031 C 41.175781 122.546875 41.054688 122.597656 40.929688 122.597656"/></g><path fill="#330D18" d="M 59 103.558594 L 40.457031 122.609375 L 40.457031 60.121094 L 59 41.070312 L 59 103.558594"/><path fill="#B4A497" d="M 59.523438 41.070312 L 40.984375 60.121094 L 40.984375 122.609375 L 49.445312 113.917969 L 49.445312 122.609375 L 67.984375 103.558594 L 67.984375 41.070312 L 59.523438 41.070312"/><g clip-path="url(#n)"><path fill="#6B1F49" d="M 52.242188 103.898438 L 52.242188 59.328125 L 68.910156 42.152344 L 68.910156 103.761719 L 68.777344 103.898438 L 69.839844 102.25 L 69.839844 41.003906 C 69.839844 40.8125 69.726562 40.640625 69.550781 40.570312 C 69.375 40.5 69.171875 40.542969 69.039062 40.679688 L 51.441406 58.820312 C 51.355469 58.90625 51.308594 59.019531 51.308594 59.140625 L 51.308594 103.898438 L 52.242188 103.898438"/></g><path fill="#330D18" d="M 69.839844 103.515625 L 51.300781 122.566406 L 51.300781 60.078125 L 69.84375 41.027344 L 69.839844 103.515625"/><path fill="#47142A" d="M 46.007812 60.773438 C 43.371094 60.773438 41.175781 60.097656 40.609375 59.191406 L 40.457031 59.191406 L 40.457031 122.140625 C 40.457031 123.265625 42.941406 124.179688 46.007812 124.179688 C 49.074219 124.179688 51.558594 123.265625 51.558594 122.140625 L 51.558594 59.191406 L 51.40625 59.191406 C 50.839844 60.097656 48.644531 60.773438 46.007812 60.773438"/><path fill="#F9AB0C" d="M 48.921875 77.664062 C 48.527344 79.261719 46.726562 80.199219 44.890625 79.753906 C 43.054688 79.304688 41.886719 77.652344 42.277344 76.050781 C 42.667969 74.453125 44.472656 73.519531 46.308594 73.964844 C 48.140625 74.410156 49.308594 76.066406 48.921875 77.664062"/><path fill="#F9AB0C" d="M 40.457031 64.816406 L 40.457031 69.523438 C 41.800781 70.097656 43.785156 70.460938 46.007812 70.460938 C 48.230469 70.460938 50.214844 70.097656 51.558594 69.523438 L 51.558594 64.816406 C 50.214844 65.390625 48.230469 65.753906 46.007812 65.753906 C 43.785156 65.753906 41.800781 65.390625 40.457031 64.816406"/><path fill="#F9AB0C" d="M 51.558594 120.28125 L 51.558594 118.972656 C 50.214844 119.546875 48.230469 119.910156 46.007812 119.910156 C 43.785156 119.910156 41.800781 119.546875 40.457031 118.972656 L 40.457031 120.277344 C 41.800781 120.851562 43.785156 121.21875 46.007812 121.21875 C 48.230469 121.21875 50.214844 120.851562 51.558594 120.28125"/><path fill="#F9AB0C" d="M 51.558594 118.289062 L 51.558594 116.984375 C 50.214844 117.558594 48.230469 117.921875 46.007812 117.921875 C 43.785156 117.921875 41.800781 117.558594 40.457031 116.984375 L 40.457031 118.289062 C 41.800781 118.863281 43.785156 119.226562 46.007812 119.226562 C 48.230469 119.226562 50.214844 118.863281 51.558594 118.289062"/><path fill="#F9AB0C" d="M 46.007812 117.238281 C 48.230469 117.238281 50.214844 116.875 51.558594 116.300781 L 51.558594 114.996094 C 50.214844 115.570312 48.230469 115.933594 46.007812 115.933594 C 43.785156 115.933594 41.800781 115.566406 40.457031 114.996094 L 40.457031 116.300781 C 41.800781 116.875 43.785156 117.238281 46.007812 117.238281"/><g clip-path="url(#o)"><path fill="#469A97" d="M 53.050781 59.375 L 53.050781 120.984375 L 69.71875 103.808594 L 69.71875 42.195312 Z M 52.582031 122.597656 C 52.523438 122.597656 52.464844 122.585938 52.410156 122.566406 C 52.234375 122.492188 52.117188 122.324219 52.117188 122.132812 L 52.117188 59.1875 C 52.117188 59.066406 52.164062 58.949219 52.25 58.863281 L 69.847656 40.722656 C 69.980469 40.589844 70.183594 40.546875 70.359375 40.617188 C 70.535156 40.6875 70.648438 40.859375 70.648438 41.046875 L 70.648438 103.996094 C 70.648438 104.113281 70.601562 104.230469 70.519531 104.316406 L 52.917969 122.457031 C 52.828125 122.546875 52.707031 122.597656 52.582031 122.597656"/></g><path fill="#357371" d="M 70.648438 103.558594 L 52.109375 122.609375 L 52.109375 60.121094 L 70.648438 41.070312 L 70.648438 103.558594"/><path fill="#B4A497" d="M 71.175781 41.070312 L 52.632812 60.121094 L 52.632812 122.609375 L 61.09375 113.917969 L 61.097656 122.609375 L 79.636719 103.558594 L 79.636719 41.070312 L 71.175781 41.070312"/><g clip-path="url(#p)"><path fill="#469A97" d="M 63.890625 103.898438 L 63.890625 59.328125 L 80.5625 42.148438 L 80.5625 103.761719 L 80.425781 103.898438 L 81.492188 102.25 L 81.492188 41.003906 C 81.492188 40.8125 81.378906 40.640625 81.203125 40.570312 C 81.027344 40.5 80.824219 40.542969 80.691406 40.679688 L 63.089844 58.820312 C 63.007812 58.90625 62.960938 59.019531 62.960938 59.140625 L 62.960938 103.898438 L 63.890625 103.898438"/></g><path fill="#357371" d="M 81.492188 103.515625 L 62.953125 122.566406 L 62.953125 60.078125 L 81.492188 41.027344 L 81.492188 103.515625"/><path fill="#53B6B1" d="M 57.660156 60.773438 C 55.023438 60.773438 52.828125 60.097656 52.261719 59.191406 L 52.109375 59.191406 L 52.109375 122.140625 C 52.109375 123.265625 54.59375 124.179688 57.660156 124.179688 C 60.726562 124.179688 63.210938 123.265625 63.210938 122.140625 L 63.210938 59.191406 L 63.058594 59.191406 C 62.492188 60.097656 60.296875 60.773438 57.660156 60.773438"/><path fill="#1C3B3C" d="M 60.570312 77.664062 C 60.179688 79.261719 58.375 80.199219 56.542969 79.753906 C 54.707031 79.304688 53.535156 77.652344 53.929688 76.050781 C 54.320312 74.453125 56.125 73.519531 57.957031 73.964844 C 59.792969 74.410156 60.960938 76.066406 60.570312 77.664062"/><path fill="#1C3B3C" d="M 52.109375 64.816406 L 52.109375 69.523438 C 53.453125 70.097656 55.4375 70.460938 57.660156 70.460938 C 59.882812 70.460938 61.867188 70.097656 63.210938 69.523438 L 63.210938 64.816406 C 61.867188 65.390625 59.882812 65.753906 57.660156 65.753906 C 55.4375 65.753906 53.453125 65.390625 52.109375 64.816406"/><path fill="#1C3B3C" d="M 63.210938 120.28125 L 63.210938 118.972656 C 61.867188 119.546875 59.882812 119.910156 57.660156 119.910156 C 55.4375 119.910156 53.453125 119.546875 52.109375 118.972656 L 52.109375 120.277344 C 53.453125 120.851562 55.4375 121.21875 57.660156 121.21875 C 59.882812 121.21875 61.867188 120.851562 63.210938 120.28125"/><path fill="#1C3B3C" d="M 63.210938 118.289062 L 63.210938 116.984375 C 61.867188 117.558594 59.882812 117.921875 57.660156 117.921875 C 55.4375 117.921875 53.453125 117.558594 52.109375 116.984375 L 52.109375 118.289062 C 53.453125 118.863281 55.4375 119.226562 57.660156 119.226562 C 59.882812 119.226562 61.867188 118.863281 63.210938 118.289062"/><path fill="#1C3B3C" d="M 57.660156 117.238281 C 59.882812 117.238281 61.867188 116.875 63.210938 116.300781 L 63.210938 114.996094 C 61.867188 115.570312 59.882812 115.933594 57.660156 115.933594 C 55.4375 115.933594 53.453125 115.566406 52.109375 114.996094 L 52.109375 116.300781 C 53.453125 116.875 55.4375 117.238281 57.660156 117.238281"/><path fill="#C5700D" d="M 59.09375 74.296875 L 81.523438 124.398438 L 100.8125 104.679688 L 78.386719 54.578125 Z M 81.054688 126.011719 C 81 126.011719 80.9375 126 80.882812 125.976562 C 80.707031 125.910156 80.589844 125.734375 80.589844 125.546875 L 58.15625 75.042969 C 58.15625 74.921875 58.125 73.957031 58.210938 73.871094 L 78.515625 53.105469 C 78.648438 52.96875 78.851562 52.925781 79.027344 53 C 79.203125 53.070312 79.320312 53.242188 79.320312 53.429688 L 101.746094 104.871094 C 101.746094 104.988281 101.699219 105.105469 101.617188 105.191406 L 81.394531 125.871094 C 81.304688 125.960938 81.183594 126.011719 81.054688 126.011719"/><path fill="#593005" d="M 101.746094 104.4375 L 80.585938 126.023438 L 58.15625 75.042969 L 79.320312 53.453125 L 101.746094 104.4375"/><path fill="#B4A497" d="M 79.84375 53.453125 L 58.679688 75.042969 L 81.109375 126.023438 L 89.570312 117.332031 L 89.570312 126.023438 L 110.730469 104.4375 L 87.785156 50.804688 L 79.84375 53.453125"/><path fill="#F9AB0C" d="M 62.714844 74.980469 C 60.183594 75.710938 58.777344 74.777344 58.210938 73.871094 L 58.15625 75.816406 L 81.960938 129.214844 C 81.960938 129.214844 83.609375 130.445312 86.871094 129.421875 C 88.75 128.828125 91.683594 126.679688 91.683594 125.554688 L 67.757812 71.242188 L 67.597656 72.351562 C 67.03125 73.253906 65.96875 74.039062 62.714844 74.980469"/><path fill="#EEDEE1" d="M 70.917969 89.175781 C 70.527344 90.777344 68.726562 91.710938 66.890625 91.265625 C 65.054688 90.820312 63.886719 89.164062 64.277344 87.5625 C 64.667969 85.964844 66.472656 85.03125 68.308594 85.476562 C 70.140625 85.921875 71.3125 87.578125 70.917969 89.175781"/><path fill="#EEDEE1" d="M 59.25 78.125 L 61.589844 83.277344 C 61.417969 83.347656 64.261719 84.238281 66.4375 83.316406 C 70.300781 81.679688 71.355469 80.820312 72.171875 80.273438 L 69.835938 75.632812 C 69.457031 75.953125 68.09375 77.851562 64.925781 78.859375 C 60.476562 80.273438 59.25 78.125 59.25 78.125"/><path fill="#EEDEE1" d="M 86.683594 114.199219 C 84.414062 116.039062 80.414062 117.257812 76.871094 117.800781 L 77.847656 119.988281 C 81.304688 119.425781 85.171875 118.105469 87.789062 116.707031 L 86.683594 114.199219"/><path fill="#EEDEE1" d="M 89.820312 121.324219 C 87.152344 122.601562 83.410156 123.984375 79.824219 124.417969 L 80.820312 126.65625 C 84.605469 126.390625 88.242188 125.003906 90.84375 123.648438 L 89.820312 121.324219"/><path fill="#EEDEE1" d="M 89.335938 120.222656 L 88.449219 118.214844 C 85.71875 119.425781 81.8125 120.628906 78.351562 121.117188 L 79.285156 123.210938 C 82.699219 122.742188 86.550781 121.492188 89.335938 120.222656"/><path fill="#C5700D" d="M 92.367188 107.3125 L 68.539062 71.601562 L 87.828125 51.886719 L 111.65625 104.636719 L 111.523438 104.777344 L 111.679688 104.117188 L 88.761719 50.738281 C 88.761719 50.546875 88.644531 50.378906 88.46875 50.308594 C 88.292969 50.238281 88.09375 50.277344 87.960938 50.414062 L 67.734375 71.09375 C 66.941406 71.882812 67.597656 72.230469 67.597656 72.351562 L 91.433594 107.3125 L 92.367188 107.3125"/><g clip-path="url(#q)"><path fill="#F89C0E" d="M 112.589844 104.390625 L 91.425781 125.980469 L 67.597656 72.351562 L 88.761719 50.761719 L 112.589844 104.390625"/></g><g><use x="116.095" y="59.197" xmlns:xlink="http://www.w3.org/1999/xlink" xlink:href="#r" xlink:type="simple" xlink:actuate="onLoad" xlink:show="embed"/></g><g><use x="133.557" y="59.197" xmlns:xlink="http://www.w3.org/1999/xlink" xlink:href="#s" xlink:type="simple" xlink:actuate="onLoad" xlink:show="embed"/></g><g><use x="151.805" y="59.197" xmlns:xlink="http://www.w3.org/1999/xlink" xlink:href="#t" xlink:type="simple" xlink:actuate="onLoad" xlink:show="embed"/></g><g><use x="167.358" y="59.197" xmlns:xlink="http://www.w3.org/1999/xlink" xlink:href="#u" xlink:type="simple" xlink:actuate="onLoad" xlink:show="embed"/></g><g><use x="178.672" y="59.197" xmlns:xlink="http://www.w3.org/1999/xlink" xlink:href="#v" xlink:type="simple" xlink:actuate="onLoad" xlink:show="embed"/></g><g><use x="194.731" y="59.197" xmlns:xlink="http://www.w3.org/1999/xlink" xlink:href="#w" xlink:type="simple" xlink:actuate="onLoad" xlink:show="embed"/></g><g><use x="116.095" y="92.242" xmlns:xlink="http://www.w3.org/1999/xlink" xlink:href="#x" xlink:type="simple" xlink:actuate="onLoad" xlink:show="embed"/></g><g><use x="132.715" y="92.242" xmlns:xlink="http://www.w3.org/1999/xlink" xlink:href="#y" xlink:type="simple" xlink:actuate="onLoad" xlink:show="embed"/></g><g><use x="151.469" y="92.242" xmlns:xlink="http://www.w3.org/1999/xlink" xlink:href="#z" xlink:type="simple" xlink:actuate="onLoad" xlink:show="embed"/></g><g><use x="158.992" y="92.242" xmlns:xlink="http://www.w3.org/1999/xlink" xlink:href="#A" xlink:type="simple" xlink:actuate="onLoad" xlink:show="embed"/></g><g><use x="167.022" y="92.242" xmlns:xlink="http://www.w3.org/1999/xlink" xlink:href="#y" xlink:type="simple" xlink:actuate="onLoad" xlink:show="embed"/></g><g><use x="185.775" y="92.242" xmlns:xlink="http://www.w3.org/1999/xlink" xlink:href="#B" xlink:type="simple" xlink:actuate="onLoad" xlink:show="embed"/></g><g><use x="116.095" y="125.287" xmlns:xlink="http://www.w3.org/1999/xlink" xlink:href="#z" xlink:type="simple" xlink:actuate="onLoad" xlink:show="embed"/></g><g><use x="123.619" y="125.287" xmlns:xlink="http://www.w3.org/1999/xlink" xlink:href="#A" xlink:type="simple" xlink:actuate="onLoad" xlink:show="embed"/></g><g><use x="131.648" y="125.287" xmlns:xlink="http://www.w3.org/1999/xlink" xlink:href="#C" xlink:type="simple" xlink:actuate="onLoad" xlink:show="embed"/></g><g><use x="148.465" y="125.287" xmlns:xlink="http://www.w3.org/1999/xlink" xlink:href="#D" xlink:type="simple" xlink:actuate="onLoad" xlink:show="embed"/></g><g><use x="162.698" y="125.287" xmlns:xlink="http://www.w3.org/1999/xlink" xlink:href="#v" xlink:type="simple" xlink:actuate="onLoad" xlink:show="embed"/></g><g><use x="178.757" y="125.287" xmlns:xlink="http://www.w3.org/1999/xlink" xlink:href="#D" xlink:type="simple" xlink:actuate="onLoad" xlink:show="embed"/></g><g><use x="192.99" y="125.287" xmlns:xlink="http://www.w3.org/1999/xlink" xlink:href="#E" xlink:type="simple" xlink:actuate="onLoad" xlink:show="embed"/></g></svg>