<svg xmlns="http://www.w3.org/2000/svg" xmlns:xlink="http://www.w3.org/1999/xlink" width="224.88" viewBox="0 0 224.88 150" height="150" version="1.0"><defs><clipPath id="a"><path d="M 5.488281 40.496094 L 25 40.496094 L 25 123 L 5.488281 123 Z M 5.488281 40.496094"/></clipPath><clipPath id="b"><path d="M 5.488281 41 L 25 41 L 25 123 L 5.488281 123 Z M 5.488281 41"/></clipPath><clipPath id="c"><path d="M 16 40.496094 L 35 40.496094 L 35 104 L 16 104 Z M 16 40.496094"/></clipPath><clipPath id="d"><path d="M 5.488281 59 L 17 59 L 17 125 L 5.488281 125 Z M 5.488281 59"/></clipPath><clipPath id="e"><path d="M 5.488281 64 L 17 64 L 17 71 L 5.488281 71 Z M 5.488281 64"/></clipPath><clipPath id="f"><path d="M 5.488281 118 L 17 118 L 17 122 L 5.488281 122 Z M 5.488281 118"/></clipPath><clipPath id="g"><path d="M 5.488281 116 L 17 116 L 17 120 L 5.488281 120 Z M 5.488281 116"/></clipPath><clipPath id="h"><path d="M 5.488281 114 L 17 114 L 17 118 L 5.488281 118 Z M 5.488281 114"/></clipPath><clipPath id="i"><path d="M 17 40.496094 L 36 40.496094 L 36 123 L 17 123 Z M 17 40.496094"/></clipPath><clipPath id="j"><path d="M 28 40.496094 L 47 40.496094 L 47 104 L 28 104 Z M 28 40.496094"/></clipPath><clipPath id="k"><path d="M 28 40.496094 L 48 40.496094 L 48 123 L 28 123 Z M 28 40.496094"/></clipPath><clipPath id="l"><path d="M 39 40.496094 L 59 40.496094 L 59 104 L 39 104 Z M 39 40.496094"/></clipPath><clipPath id="m"><path d="M 40 40.496094 L 59 40.496094 L 59 123 L 40 123 Z M 40 40.496094"/></clipPath><clipPath id="n"><path d="M 51 40.496094 L 70 40.496094 L 70 104 L 51 104 Z M 51 40.496094"/></clipPath><clipPath id="o"><path d="M 52 40.496094 L 71 40.496094 L 71 123 L 52 123 Z M 52 40.496094"/></clipPath><clipPath id="p"><path d="M 62 40.496094 L 82 40.496094 L 82 104 L 62 104 Z M 62 40.496094"/></clipPath><clipPath id="q"><path d="M 67 50 L 112.683594 50 L 112.683594 126 L 67 126 Z M 67 50"/></clipPath><g id="r"><path d="M 8.875 -13.3125 C 10.5 -13.3125 11.757812 -12.753906 12.65625 -11.640625 C 13.5625 -10.523438 14.015625 -8.945312 14.015625 -6.90625 C 14.015625 -4.601562 13.4375 -2.820312 12.28125 -1.5625 C 11.132812 -0.3125 9.503906 0.3125 7.390625 0.3125 C 6.929688 0.3125 6.40625 0.265625 5.8125 0.171875 L 5.890625 5.1875 L 1.484375 5.1875 L 1.6875 -5.359375 L 1.484375 -12.859375 L 5.734375 -13.203125 L 5.734375 -11.265625 L 5.921875 -11.265625 C 6.410156 -11.765625 6.882812 -12.171875 7.34375 -12.484375 C 7.800781 -12.804688 8.3125 -13.082031 8.875 -13.3125 Z M 7.296875 -2.53125 C 9.003906 -2.53125 9.859375 -3.773438 9.859375 -6.265625 C 9.835938 -8.597656 9.085938 -9.765625 7.609375 -9.765625 C 6.992188 -9.765625 6.359375 -9.492188 5.703125 -8.953125 L 5.703125 -5.8125 L 5.75 -2.8125 C 6.351562 -2.625 6.867188 -2.53125 7.296875 -2.53125 Z M 7.296875 -2.53125"/></g><g id="s"><path d="M 14.40625 -2.828125 L 14.015625 -0.5 C 13.222656 0 12.414062 0.25 11.59375 0.25 C 10.507812 0.03125 9.757812 -0.707031 9.34375 -1.96875 L 9.0625 -1.96875 C 7.976562 -0.882812 6.882812 -0.171875 5.78125 0.171875 C 4.375 0.171875 3.296875 -0.148438 2.546875 -0.796875 C 1.804688 -1.441406 1.4375 -2.363281 1.4375 -3.5625 L 1.515625 -6.703125 L 1.375 -12.859375 L 5.640625 -13.203125 L 5.59375 -5.1875 C 5.570312 -3.976562 6.054688 -3.375 7.046875 -3.375 C 7.378906 -3.375 7.695312 -3.4375 8 -3.5625 C 8.300781 -3.695312 8.628906 -3.914062 8.984375 -4.21875 L 8.984375 -12.859375 L 13.203125 -13.203125 L 12.9375 -3.703125 C 12.9375 -3.441406 12.976562 -3.253906 13.0625 -3.140625 C 13.15625 -3.023438 13.296875 -2.96875 13.484375 -2.96875 C 13.648438 -2.96875 13.851562 -3.007812 14.09375 -3.09375 Z M 14.40625 -2.828125"/></g><g id="t"><path d="M 6.265625 -13.390625 C 7.609375 -13.390625 8.878906 -13.164062 10.078125 -12.71875 L 9.515625 -9.546875 L 8.984375 -9.375 C 8.390625 -9.75 7.804688 -10.039062 7.234375 -10.25 C 6.660156 -10.457031 6.164062 -10.5625 5.75 -10.5625 C 5.375 -10.5625 5.082031 -10.472656 4.875 -10.296875 C 4.675781 -10.117188 4.578125 -9.90625 4.578125 -9.65625 C 4.578125 -9.320312 4.742188 -9.046875 5.078125 -8.828125 C 5.421875 -8.609375 5.9375 -8.367188 6.625 -8.109375 C 7.414062 -7.796875 8.050781 -7.5 8.53125 -7.21875 C 9.019531 -6.9375 9.445312 -6.539062 9.8125 -6.03125 C 10.175781 -5.53125 10.359375 -4.894531 10.359375 -4.125 C 10.359375 -3.34375 10.160156 -2.613281 9.765625 -1.9375 C 9.378906 -1.257812 8.769531 -0.710938 7.9375 -0.296875 C 7.101562 0.109375 6.066406 0.3125 4.828125 0.3125 C 3.441406 0.3125 1.972656 0.046875 0.421875 -0.484375 L 0.953125 -3.84375 L 1.34375 -4.125 C 1.96875 -3.625 2.65625 -3.222656 3.40625 -2.921875 C 4.164062 -2.617188 4.816406 -2.46875 5.359375 -2.46875 C 5.773438 -2.46875 6.085938 -2.5625 6.296875 -2.75 C 6.515625 -2.9375 6.625 -3.171875 6.625 -3.453125 C 6.625 -3.773438 6.457031 -4.039062 6.125 -4.25 C 5.800781 -4.46875 5.285156 -4.71875 4.578125 -5 C 3.804688 -5.300781 3.164062 -5.59375 2.65625 -5.875 C 2.15625 -6.15625 1.722656 -6.550781 1.359375 -7.0625 C 0.992188 -7.570312 0.8125 -8.222656 0.8125 -9.015625 C 0.8125 -10.304688 1.296875 -11.359375 2.265625 -12.171875 C 3.242188 -12.984375 4.578125 -13.390625 6.265625 -13.390625 Z M 6.265625 -13.390625"/></g><g id="u"><path d="M 7.359375 -3.25 C 7.921875 -3.25 8.519531 -3.390625 9.15625 -3.671875 L 9.46875 -3.34375 L 9.046875 -0.78125 C 8.109375 -0.257812 7.132812 0.0664062 6.125 0.203125 C 4.757812 0.117188 3.71875 -0.242188 3 -0.890625 C 2.289062 -1.535156 1.9375 -2.414062 1.9375 -3.53125 L 2.078125 -6.09375 L 2.046875 -10.390625 L 0.3125 -10.390625 L 0.171875 -10.609375 L 0.359375 -13.03125 L 2.015625 -13.03125 L 2.015625 -15.28125 L 6.09375 -16.484375 L 6.40625 -16.203125 L 6.296875 -13.03125 L 9.375 -13.03125 L 9.515625 -12.78125 L 9.328125 -10.390625 L 6.203125 -10.390625 L 6.03125 -4.71875 C 6.03125 -4.175781 6.128906 -3.796875 6.328125 -3.578125 C 6.523438 -3.359375 6.867188 -3.25 7.359375 -3.25 Z M 7.359375 -3.25"/></g><g id="v"><path d="M 7.015625 -13.421875 C 8.566406 -13.421875 9.773438 -13.085938 10.640625 -12.421875 C 11.503906 -11.753906 11.9375 -10.804688 11.9375 -9.578125 C 11.9375 -9.140625 11.914062 -8.640625 11.875 -8.078125 C 11.84375 -7.523438 11.816406 -6.992188 11.796875 -6.484375 C 11.703125 -5.140625 11.65625 -4.210938 11.65625 -3.703125 C 11.65625 -3.441406 11.695312 -3.253906 11.78125 -3.140625 C 11.863281 -3.023438 12.007812 -2.96875 12.21875 -2.96875 C 12.382812 -2.96875 12.585938 -3.007812 12.828125 -3.09375 L 13.140625 -2.828125 L 12.75 -0.5 C 12.132812 -0.0703125 11.375 0.175781 10.46875 0.25 C 9.90625 0.195312 9.425781 0.00390625 9.03125 -0.328125 C 8.644531 -0.671875 8.367188 -1.148438 8.203125 -1.765625 L 8 -1.765625 C 7.0625 -0.773438 6.109375 -0.09375 5.140625 0.28125 C 3.753906 0.257812 2.660156 -0.113281 1.859375 -0.84375 C 1.066406 -1.570312 0.671875 -2.5625 0.671875 -3.8125 C 0.671875 -5.738281 1.679688 -6.875 3.703125 -7.21875 L 7.859375 -7.921875 L 7.859375 -8.734375 C 7.859375 -9.316406 7.734375 -9.734375 7.484375 -9.984375 C 7.234375 -10.234375 6.828125 -10.359375 6.265625 -10.359375 C 5.703125 -10.359375 5.097656 -10.234375 4.453125 -9.984375 C 3.804688 -9.742188 3.0625 -9.363281 2.21875 -8.84375 L 1.9375 -9.046875 L 1.4375 -11.9375 C 2.28125 -12.40625 3.1875 -12.769531 4.15625 -13.03125 C 5.125 -13.289062 6.078125 -13.421875 7.015625 -13.421875 Z M 5.453125 -5.359375 C 5.171875 -5.304688 4.957031 -5.191406 4.8125 -5.015625 C 4.675781 -4.847656 4.609375 -4.597656 4.609375 -4.265625 C 4.609375 -3.816406 4.722656 -3.46875 4.953125 -3.21875 C 5.191406 -2.976562 5.515625 -2.859375 5.921875 -2.859375 C 6.523438 -2.859375 7.160156 -3.175781 7.828125 -3.8125 L 7.859375 -5.84375 Z M 5.453125 -5.359375"/></g><g id="w"><path d="M 5.8125 -5.8125 L 6.015625 0 L 1.578125 0 L 1.796875 -5.390625 L 1.625 -19.40625 L 6.03125 -19.703125 Z M 10.078125 -7.25 C 11.035156 -5.59375 12.421875 -3.421875 14.234375 -0.734375 L 14.203125 -0.28125 C 13.234375 -0.0703125 11.847656 0.125 10.046875 0.3125 L 9.609375 0.078125 C 8.109375 -2.222656 6.851562 -4.53125 5.84375 -6.84375 L 5.84375 -7.125 L 8.734375 -11.6875 L 9.375 -13.140625 L 13.984375 -13.140625 Z M 10.078125 -7.25"/></g><g id="x"><path d="M 7.15625 -13.421875 C 9.144531 -13.421875 10.65625 -12.859375 11.6875 -11.734375 C 12.726562 -10.609375 13.25 -8.972656 13.25 -6.828125 C 13.25 -4.503906 12.691406 -2.734375 11.578125 -1.515625 C 10.460938 -0.296875 8.847656 0.3125 6.734375 0.3125 C 4.753906 0.3125 3.242188 -0.25 2.203125 -1.375 C 1.160156 -2.5 0.640625 -4.128906 0.640625 -6.265625 C 0.640625 -8.585938 1.195312 -10.359375 2.3125 -11.578125 C 3.425781 -12.804688 5.039062 -13.421875 7.15625 -13.421875 Z M 6.84375 -10.421875 C 6.101562 -10.421875 5.578125 -10.171875 5.265625 -9.671875 C 4.953125 -9.171875 4.796875 -8.304688 4.796875 -7.078125 C 4.796875 -5.929688 4.863281 -5.035156 5 -4.390625 C 5.144531 -3.742188 5.378906 -3.285156 5.703125 -3.015625 C 6.035156 -2.742188 6.484375 -2.609375 7.046875 -2.609375 C 7.773438 -2.609375 8.289062 -2.851562 8.59375 -3.34375 C 8.90625 -3.84375 9.0625 -4.722656 9.0625 -5.984375 C 9.0625 -7.648438 8.898438 -8.804688 8.578125 -9.453125 C 8.253906 -10.097656 7.675781 -10.421875 6.84375 -10.421875 Z M 6.84375 -10.421875"/></g><g id="y"><path d="M 9.4375 -7.828125 C 9.46875 -9.117188 8.941406 -9.765625 7.859375 -9.765625 C 7.203125 -9.765625 6.492188 -9.484375 5.734375 -8.921875 L 5.734375 -5.8125 L 5.921875 0 L 1.484375 0 L 1.6875 -5.359375 L 1.515625 -12.859375 L 5.75 -13.203125 L 5.75 -11.265625 L 5.921875 -11.265625 C 6.929688 -12.210938 8.054688 -12.894531 9.296875 -13.3125 C 10.703125 -13.3125 11.773438 -12.988281 12.515625 -12.34375 C 13.253906 -11.695312 13.613281 -10.773438 13.59375 -9.578125 L 13.484375 -5.8125 L 13.640625 0 L 9.203125 0 Z M 9.4375 -7.828125"/></g><g id="z"><path d="M 5.8125 -5.8125 L 6.015625 0 L 1.578125 0 L 1.796875 -5.390625 L 1.625 -19.40625 L 6.03125 -19.703125 Z M 5.8125 -5.8125"/></g><g id="A"><path d="M 1.734375 -5.359375 L 1.59375 -12.859375 L 6.015625 -13.203125 L 5.8125 -5.8125 L 5.984375 0 L 1.546875 0 Z M 3.875 -19.875 C 4.5625 -19.875 5.097656 -19.675781 5.484375 -19.28125 C 5.867188 -18.894531 6.0625 -18.351562 6.0625 -17.65625 C 6.0625 -16.90625 5.84375 -16.3125 5.40625 -15.875 C 4.976562 -15.4375 4.410156 -15.21875 3.703125 -15.21875 C 2.992188 -15.21875 2.453125 -15.410156 2.078125 -15.796875 C 1.703125 -16.191406 1.515625 -16.75 1.515625 -17.46875 C 1.515625 -18.195312 1.722656 -18.78125 2.140625 -19.21875 C 2.566406 -19.65625 3.144531 -19.875 3.875 -19.875 Z M 3.875 -19.875"/></g><g id="B"><path d="M 12.078125 -5.84375 L 4.71875 -5.78125 C 4.84375 -4.8125 5.175781 -4.09375 5.71875 -3.625 C 6.269531 -3.15625 7.039062 -2.921875 8.03125 -2.921875 C 9.019531 -2.921875 10.332031 -3.210938 11.96875 -3.796875 L 12.296875 -3.5625 L 11.625 -0.390625 C 10.125 0.078125 8.765625 0.3125 7.546875 0.3125 C 5.398438 0.3125 3.710938 -0.296875 2.484375 -1.515625 C 1.253906 -2.734375 0.640625 -4.410156 0.640625 -6.546875 C 0.640625 -8.679688 1.226562 -10.359375 2.40625 -11.578125 C 3.59375 -12.804688 5.195312 -13.421875 7.21875 -13.421875 C 8.957031 -13.421875 10.304688 -12.953125 11.265625 -12.015625 C 12.234375 -11.078125 12.71875 -9.773438 12.71875 -8.109375 C 12.71875 -7.566406 12.660156 -7 12.546875 -6.40625 Z M 8.875 -8.59375 C 8.875 -9.882812 8.3125 -10.53125 7.1875 -10.53125 C 6.550781 -10.53125 6.023438 -10.316406 5.609375 -9.890625 C 5.203125 -9.472656 4.921875 -8.875 4.765625 -8.09375 L 8.8125 -8.203125 Z M 8.875 -8.59375"/></g><g id="C"><path d="M 8.984375 -13.3125 C 10.628906 -13.3125 11.898438 -12.75 12.796875 -11.625 C 13.703125 -10.5 14.15625 -8.9375 14.15625 -6.9375 C 14.15625 -4.613281 13.566406 -2.820312 12.390625 -1.5625 C 11.222656 -0.3125 9.609375 0.3125 7.546875 0.3125 C 6.523438 0.3125 5.394531 0.0859375 4.15625 -0.359375 L 2.015625 0.34375 L 1.578125 -0.078125 L 1.796875 -5.359375 L 1.59375 -19.40625 L 6.03125 -19.703125 L 5.890625 -11.265625 L 6.03125 -11.265625 C 6.519531 -11.742188 7 -12.144531 7.46875 -12.46875 C 7.9375 -12.800781 8.441406 -13.082031 8.984375 -13.3125 Z M 7.40625 -2.53125 C 9.132812 -2.53125 10 -3.773438 10 -6.265625 C 9.957031 -8.597656 9.195312 -9.765625 7.71875 -9.765625 C 7.082031 -9.765625 6.46875 -9.503906 5.875 -8.984375 L 5.8125 -5.921875 L 5.84375 -2.859375 C 6.4375 -2.640625 6.957031 -2.53125 7.40625 -2.53125 Z M 7.40625 -2.53125"/></g><g id="D"><path d="M 9.328125 -13.171875 C 9.429688 -13.171875 9.65625 -13.148438 10 -13.109375 L 10 -9.046875 L 9.546875 -8.90625 C 9.285156 -9.03125 8.9375 -9.09375 8.5 -9.09375 C 7.488281 -9.09375 6.566406 -8.550781 5.734375 -7.46875 L 5.734375 -5.8125 L 5.921875 0 L 1.484375 0 L 1.71875 -5.359375 L 1.515625 -12.859375 L 5.75 -13.203125 L 5.75 -10.671875 L 5.953125 -10.671875 C 6.828125 -12.335938 7.953125 -13.171875 9.328125 -13.171875 Z M 9.328125 -13.171875"/></g><g id="E"><path d="M 4.515625 -10.984375 L 6.484375 -4.375 L 6.734375 -4.375 L 8.640625 -10.578125 L 9.15625 -13.140625 L 12.921875 -13.140625 L 8.8125 -1.09375 C 8.382812 0.195312 7.878906 1.242188 7.296875 2.046875 C 6.722656 2.847656 6 3.503906 5.125 4.015625 C 4.25 4.535156 3.117188 5.003906 1.734375 5.421875 L 1.4375 5.390625 C 0.707031 4.679688 0.0625 3.800781 -0.5 2.75 L -0.34375 2.328125 C 0.726562 2.160156 1.644531 1.898438 2.40625 1.546875 C 3.175781 1.191406 3.921875 0.675781 4.640625 0 L -0.140625 -13.0625 L 4.078125 -13.21875 Z M 4.515625 -10.984375"/></g></defs><g clip-path="url(#a)"><path fill="#DF850E" d="M 6.5 59.375 L 6.5 120.984375 L 23.167969 103.808594 L 23.164062 42.195312 Z M 6.03125 122.597656 C 5.972656 122.597656 5.914062 122.585938 5.855469 122.566406 C 5.679688 122.492188 5.566406 122.324219 5.566406 122.132812 L 5.566406 59.1875 C 5.566406 59.066406 5.613281 58.949219 5.695312 58.863281 L 23.296875 40.722656 C 23.429688 40.589844 23.632812 40.546875 23.808594 40.617188 C 23.984375 40.6875 24.097656 40.859375 24.097656 41.046875 L 24.097656 103.996094 C 24.097656 104.113281 24.050781 104.230469 23.96875 104.316406 L 6.367188 122.457031 C 6.277344 122.546875 6.15625 122.597656 6.03125 122.597656"/></g><g clip-path="url(#b)"><path fill="#A84C0E" d="M 24.097656 103.558594 L 5.558594 122.609375 L 5.558594 60.121094 L 24.097656 41.070312 L 24.097656 103.558594"/></g><path fill="#B4A497" d="M 24.625 41.070312 L 6.082031 60.121094 L 6.082031 122.609375 L 14.542969 113.917969 L 14.542969 122.609375 L 33.085938 103.558594 L 33.085938 41.070312 L 24.625 41.070312"/><g clip-path="url(#c)"><path fill="#DF850E" d="M 17.339844 103.898438 L 17.339844 59.328125 L 34.007812 42.152344 L 34.007812 103.761719 L 33.875 103.898438 L 34.941406 102.25 L 34.941406 41.003906 C 34.941406 40.8125 34.828125 40.640625 34.652344 40.570312 C 34.476562 40.5 34.273438 40.542969 34.140625 40.679688 L 16.539062 58.820312 C 16.457031 58.90625 16.410156 59.019531 16.410156 59.140625 L 16.410156 103.898438 L 17.339844 103.898438"/></g><path fill="#A84C0E" d="M 34.941406 103.515625 L 16.402344 122.566406 L 16.402344 60.078125 L 34.941406 41.027344 L 34.941406 103.515625"/><g clip-path="url(#d)"><path fill="#F9AB0C" d="M 11.109375 60.773438 C 8.472656 60.773438 6.277344 60.097656 5.710938 59.191406 L 5.558594 59.191406 L 5.558594 122.140625 C 5.558594 123.265625 8.042969 124.179688 11.109375 124.179688 C 14.171875 124.179688 16.660156 123.265625 16.660156 122.140625 L 16.660156 59.191406 L 16.507812 59.191406 C 15.941406 60.097656 13.746094 60.773438 11.109375 60.773438"/></g><path fill="#EEDEE1" d="M 14.019531 77.664062 C 13.628906 79.261719 11.824219 80.199219 9.992188 79.753906 C 8.15625 79.304688 6.984375 77.652344 7.378906 76.050781 C 7.769531 74.453125 9.574219 73.519531 11.40625 73.964844 C 13.242188 74.410156 14.410156 76.066406 14.019531 77.664062"/><g clip-path="url(#e)"><path fill="#EEDEE1" d="M 5.558594 64.816406 L 5.558594 69.523438 C 6.902344 70.097656 8.882812 70.460938 11.109375 70.460938 C 13.332031 70.460938 15.3125 70.097656 16.660156 69.523438 L 16.660156 64.816406 C 15.3125 65.390625 13.332031 65.753906 11.109375 65.753906 C 8.886719 65.753906 6.902344 65.390625 5.558594 64.816406"/></g><g clip-path="url(#f)"><path fill="#EEDEE1" d="M 16.660156 120.28125 L 16.660156 118.972656 C 15.3125 119.546875 13.332031 119.910156 11.109375 119.910156 C 8.882812 119.910156 6.902344 119.546875 5.558594 118.972656 L 5.558594 120.277344 C 6.902344 120.851562 8.882812 121.21875 11.109375 121.21875 C 13.332031 121.21875 15.3125 120.851562 16.660156 120.28125"/></g><g clip-path="url(#g)"><path fill="#EEDEE1" d="M 16.660156 118.289062 L 16.660156 116.984375 C 15.3125 117.558594 13.332031 117.921875 11.109375 117.921875 C 8.882812 117.921875 6.902344 117.558594 5.558594 116.984375 L 5.558594 118.289062 C 6.902344 118.863281 8.882812 119.226562 11.109375 119.226562 C 13.332031 119.226562 15.3125 118.863281 16.660156 118.289062"/></g><g clip-path="url(#h)"><path fill="#EEDEE1" d="M 11.109375 117.238281 C 13.332031 117.238281 15.3125 116.875 16.660156 116.300781 L 16.660156 114.996094 C 15.3125 115.570312 13.332031 115.933594 11.109375 115.933594 C 8.886719 115.933594 6.902344 115.566406 5.558594 114.996094 L 5.558594 116.300781 C 6.902344 116.875 8.882812 117.238281 11.109375 117.238281"/></g><g clip-path="url(#i)"><path fill="#C82C22" d="M 18.132812 59.375 L 18.132812 120.984375 L 34.800781 103.808594 L 34.800781 42.195312 Z M 17.664062 122.597656 C 17.605469 122.597656 17.546875 122.585938 17.492188 122.566406 C 17.316406 122.492188 17.199219 122.324219 17.199219 122.132812 L 17.199219 59.1875 C 17.199219 59.066406 17.246094 58.949219 17.332031 58.863281 L 34.929688 40.722656 C 35.0625 40.589844 35.265625 40.546875 35.441406 40.617188 C 35.617188 40.6875 35.730469 40.859375 35.730469 41.046875 L 35.730469 103.996094 C 35.730469 104.113281 35.683594 104.230469 35.601562 104.316406 L 18 122.457031 C 17.910156 122.546875 17.789062 122.597656 17.664062 122.597656"/></g><path fill="#B51C20" d="M 35.730469 103.558594 L 17.191406 122.609375 L 17.191406 60.121094 L 35.730469 41.070312 L 35.730469 103.558594"/><path fill="#B4A497" d="M 36.257812 41.070312 L 17.714844 60.121094 L 17.714844 122.609375 L 26.175781 113.917969 L 26.175781 122.609375 L 44.71875 103.558594 L 44.71875 41.070312 L 36.257812 41.070312"/><g clip-path="url(#j)"><path fill="#C82C22" d="M 28.976562 103.898438 L 28.976562 59.328125 L 45.644531 42.152344 L 45.644531 103.761719 L 45.507812 103.898438 L 46.574219 102.25 L 46.574219 41.003906 C 46.574219 40.8125 46.460938 40.640625 46.285156 40.570312 C 46.109375 40.5 45.90625 40.542969 45.773438 40.679688 L 28.171875 58.820312 C 28.089844 58.90625 28.042969 59.019531 28.042969 59.140625 L 28.042969 103.898438 L 28.976562 103.898438"/></g><path fill="#B51C20" d="M 46.574219 103.515625 L 28.035156 122.566406 L 28.035156 60.078125 L 46.574219 41.027344 L 46.574219 103.515625"/><path fill="#F03A2A" d="M 22.742188 60.773438 C 20.105469 60.773438 17.910156 60.097656 17.34375 59.191406 L 17.191406 59.191406 L 17.191406 122.140625 C 17.191406 123.265625 19.675781 124.179688 22.742188 124.179688 C 25.808594 124.179688 28.292969 123.265625 28.292969 122.140625 L 28.292969 59.191406 L 28.140625 59.191406 C 27.574219 60.097656 25.378906 60.773438 22.742188 60.773438"/><path fill="#F9AB0C" d="M 25.652344 77.664062 C 25.261719 79.261719 23.457031 80.199219 21.625 79.753906 C 19.789062 79.304688 18.617188 77.652344 19.011719 76.050781 C 19.402344 74.453125 21.207031 73.519531 23.039062 73.964844 C 24.875 74.410156 26.042969 76.066406 25.652344 77.664062"/><path fill="#F9AB0C" d="M 17.191406 64.816406 L 17.191406 69.523438 C 18.535156 70.097656 20.519531 70.460938 22.742188 70.460938 C 24.964844 70.460938 26.949219 70.097656 28.292969 69.523438 L 28.292969 64.816406 C 26.949219 65.390625 24.964844 65.753906 22.742188 65.753906 C 20.519531 65.753906 18.535156 65.390625 17.191406 64.816406"/><path fill="#F9AB0C" d="M 28.292969 120.28125 L 28.292969 118.972656 C 26.949219 119.546875 24.964844 119.910156 22.742188 119.910156 C 20.519531 119.910156 18.535156 119.546875 17.191406 118.972656 L 17.191406 120.277344 C 18.535156 120.851562 20.519531 121.21875 22.742188 121.21875 C 24.964844 121.21875 26.949219 120.851562 28.292969 120.28125"/><path fill="#F9AB0C" d="M 28.292969 118.289062 L 28.292969 116.984375 C 26.949219 117.558594 24.964844 117.921875 22.742188 117.921875 C 20.519531 117.921875 18.535156 117.558594 17.191406 116.984375 L 17.191406 118.289062 C 18.535156 118.863281 20.519531 119.226562 22.742188 119.226562 C 24.964844 119.226562 26.949219 118.863281 28.292969 118.289062"/><path fill="#F9AB0C" d="M 22.742188 117.238281 C 24.964844 117.238281 26.949219 116.875 28.292969 116.300781 L 28.292969 114.996094 C 26.949219 115.570312 24.964844 115.933594 22.742188 115.933594 C 20.519531 115.933594 18.535156 115.566406 17.191406 114.996094 L 17.191406 116.300781 C 18.535156 116.875 20.519531 117.238281 22.742188 117.238281"/><g clip-path="url(#k)"><path fill="#A1132D" d="M 29.765625 59.375 L 29.765625 120.984375 L 46.433594 103.808594 L 46.433594 42.195312 Z M 29.296875 122.597656 C 29.238281 122.597656 29.179688 122.585938 29.125 122.566406 C 28.949219 122.492188 28.832031 122.324219 28.832031 122.132812 L 28.832031 59.1875 C 28.832031 59.066406 28.878906 58.949219 28.964844 58.863281 L 46.5625 40.722656 C 46.695312 40.589844 46.898438 40.546875 47.074219 40.617188 C 47.25 40.6875 47.363281 40.859375 47.363281 41.046875 L 47.363281 103.996094 C 47.363281 104.113281 47.320312 104.230469 47.234375 104.316406 L 29.632812 122.457031 C 29.542969 122.546875 29.421875 122.597656 29.296875 122.597656"/></g><path fill="#6F0C1B" d="M 47.363281 103.558594 L 28.824219 122.609375 L 28.824219 60.121094 L 47.363281 41.070312 L 47.363281 103.558594"/><path fill="#B4A497" d="M 47.890625 41.070312 L 29.351562 60.121094 L 29.351562 122.609375 L 37.808594 113.917969 L 37.808594 122.609375 L 56.351562 103.558594 L 56.351562 41.070312 L 47.890625 41.070312"/><g clip-path="url(#l)"><path fill="#A1132D" d="M 40.609375 103.898438 L 40.609375 59.328125 L 57.277344 42.152344 L 57.277344 103.761719 L 57.144531 103.898438 L 58.207031 102.25 L 58.207031 41.003906 C 58.207031 40.8125 58.09375 40.640625 57.917969 40.570312 C 57.742188 40.5 57.539062 40.542969 57.40625 40.679688 L 39.808594 58.820312 C 39.722656 58.90625 39.675781 59.019531 39.675781 59.140625 L 39.675781 103.898438 L 40.609375 103.898438"/></g><path fill="#6F0C1B" d="M 58.207031 103.515625 L 39.667969 122.566406 L 39.667969 60.078125 L 58.207031 41.027344 L 58.207031 103.515625"/><path fill="#D91B40" d="M 34.375 60.773438 C 31.738281 60.773438 29.542969 60.097656 28.976562 59.191406 L 28.824219 59.191406 L 28.824219 122.140625 C 28.824219 123.265625 31.308594 124.179688 34.375 124.179688 C 37.441406 124.179688 39.925781 123.265625 39.925781 122.140625 L 39.925781 59.191406 L 39.773438 59.191406 C 39.207031 60.097656 37.011719 60.773438 34.375 60.773438"/><path fill="#F9AB0C" d="M 37.285156 77.664062 C 36.894531 79.261719 35.089844 80.199219 33.257812 79.753906 C 31.421875 79.304688 30.253906 77.652344 30.644531 76.050781 C 31.035156 74.453125 32.839844 73.519531 34.671875 73.964844 C 36.507812 74.410156 37.675781 76.066406 37.285156 77.664062"/><path fill="#F9AB0C" d="M 28.824219 64.816406 L 28.824219 69.523438 C 30.167969 70.097656 32.152344 70.460938 34.375 70.460938 C 36.597656 70.460938 38.582031 70.097656 39.925781 69.523438 L 39.925781 64.816406 C 38.582031 65.390625 36.597656 65.753906 34.375 65.753906 C 32.152344 65.753906 30.167969 65.390625 28.824219 64.816406"/><path fill="#F9AB0C" d="M 39.925781 120.28125 L 39.925781 118.972656 C 38.582031 119.546875 36.597656 119.910156 34.375 119.910156 C 32.152344 119.910156 30.167969 119.546875 28.824219 118.972656 L 28.824219 120.277344 C 30.167969 120.851562 32.152344 121.21875 34.375 121.21875 C 36.597656 121.21875 38.582031 120.851562 39.925781 120.28125"/><path fill="#F9AB0C" d="M 39.925781 118.289062 L 39.925781 116.984375 C 38.582031 117.558594 36.597656 117.921875 34.375 117.921875 C 32.152344 117.921875 30.167969 117.558594 28.824219 116.984375 L 28.824219 118.289062 C 30.167969 118.863281 32.152344 119.226562 34.375 119.226562 C 36.597656 119.226562 38.582031 118.863281 39.925781 118.289062"/><path fill="#F9AB0C" d="M 34.375 117.238281 C 36.597656 117.238281 38.582031 116.875 39.925781 116.300781 L 39.925781 114.996094 C 38.582031 115.570312 36.597656 115.933594 34.375 115.933594 C 32.152344 115.933594 30.167969 115.566406 28.824219 114.996094 L 28.824219 116.300781 C 30.167969 116.875 32.152344 117.238281 34.375 117.238281"/><g clip-path="url(#m)"><path fill="#6B1F49" d="M 41.398438 59.375 L 41.398438 120.984375 L 58.066406 103.808594 L 58.066406 42.195312 Z M 40.929688 122.597656 C 40.871094 122.597656 40.8125 122.585938 40.757812 122.566406 C 40.582031 122.492188 40.464844 122.324219 40.464844 122.132812 L 40.464844 59.1875 C 40.464844 59.066406 40.511719 58.949219 40.597656 58.863281 L 58.199219 40.722656 C 58.328125 40.589844 58.53125 40.546875 58.707031 40.617188 C 58.882812 40.6875 59 40.859375 59 41.046875 L 59 103.996094 C 59 104.113281 58.953125 104.230469 58.867188 104.316406 L 41.265625 122.457031 C 41.175781 122.546875 41.054688 122.597656 40.929688 122.597656"/></g><path fill="#330D18" d="M 59 103.558594 L 40.457031 122.609375 L 40.457031 60.121094 L 59 41.070312 L 59 103.558594"/><path fill="#B4A497" d="M 59.523438 41.070312 L 40.984375 60.121094 L 40.984375 122.609375 L 49.445312 113.917969 L 49.445312 122.609375 L 67.984375 103.558594 L 67.984375 41.070312 L 59.523438 41.070312"/><g clip-path="url(#n)"><path fill="#6B1F49" d="M 52.242188 103.898438 L 52.242188 59.328125 L 68.910156 42.152344 L 68.910156 103.761719 L 68.777344 103.898438 L 69.839844 102.25 L 69.839844 41.003906 C 69.839844 40.8125 69.726562 40.640625 69.550781 40.570312 C 69.375 40.5 69.171875 40.542969 69.039062 40.679688 L 51.441406 58.820312 C 51.355469 58.90625 51.308594 59.019531 51.308594 59.140625 L 51.308594 103.898438 L 52.242188 103.898438"/></g><path fill="#330D18" d="M 69.839844 103.515625 L 51.300781 122.566406 L 51.300781 60.078125 L 69.84375 41.027344 L 69.839844 103.515625"/><path fill="#47142A" d="M 46.007812 60.773438 C 43.371094 60.773438 41.175781 60.097656 40.609375 59.191406 L 40.457031 59.191406 L 40.457031 122.140625 C 40.457031 123.265625 42.941406 124.179688 46.007812 124.179688 C 49.074219 124.179688 51.558594 123.265625 51.558594 122.140625 L 51.558594 59.191406 L 51.40625 59.191406 C 50.839844 60.097656 48.644531 60.773438 46.007812 60.773438"/><path fill="#F9AB0C" d="M 48.921875 77.664062 C 48.527344 79.261719 46.726562 80.199219 44.890625 79.753906 C 43.054688 79.304688 41.886719 77.652344 42.277344 76.050781 C 42.667969 74.453125 44.472656 73.519531 46.308594 73.964844 C 48.140625 74.410156 49.308594 76.066406 48.921875 77.664062"/><path fill="#F9AB0C" d="M 40.457031 64.816406 L 40.457031 69.523438 C 41.800781 70.097656 43.785156 70.460938 46.007812 70.460938 C 48.230469 70.460938 50.214844 70.097656 51.558594 69.523438 L 51.558594 64.816406 C 50.214844 65.390625 48.230469 65.753906 46.007812 65.753906 C 43.785156 65.753906 41.800781 65.390625 40.457031 64.816406"/><path fill="#F9AB0C" d="M 51.558594 120.28125 L 51.558594 118.972656 C 50.214844 119.546875 48.230469 119.910156 46.007812 119.910156 C 43.785156 119.910156 41.800781 119.546875 40.457031 118.972656 L 40.457031 120.277344 C 41.800781 120.851562 43.785156 121.21875 46.007812 121.21875 C 48.230469 121.21875 50.214844 120.851562 51.558594 120.28125"/><path fill="#F9AB0C" d="M 51.558594 118.289062 L 51.558594 116.984375 C 50.214844 117.558594 48.230469 117.921875 46.007812 117.921875 C 43.785156 117.921875 41.800781 117.558594 40.457031 116.984375 L 40.457031 118.289062 C 41.800781 118.863281 43.785156 119.226562 46.007812 119.226562 C 48.230469 119.226562 50.214844 118.863281 51.558594 118.289062"/><path fill="#F9AB0C" d="M 46.007812 117.238281 C 48.230469 117.238281 50.214844 116.875 51.558594 116.300781 L 51.558594 114.996094 C 50.214844 115.570312 48.230469 115.933594 46.007812 115.933594 C 43.785156 115.933594 41.800781 115.566406 40.457031 114.996094 L 40.457031 116.300781 C 41.800781 116.875 43.785156 117.238281 46.007812 117.238281"/><g clip-path="url(#o)"><path fill="#469A97" d="M 53.050781 59.375 L 53.050781 120.984375 L 69.71875 103.808594 L 69.71875 42.195312 Z M 52.582031 122.597656 C 52.523438 122.597656 52.464844 122.585938 52.410156 122.566406 C 52.234375 122.492188 52.117188 122.324219 52.117188 122.132812 L 52.117188 59.1875 C 52.117188 59.066406 52.164062 58.949219 52.25 58.863281 L 69.847656 40.722656 C 69.980469 40.589844 70.183594 40.546875 70.359375 40.617188 C 70.535156 40.6875 70.648438 40.859375 70.648438 41.046875 L 70.648438 103.996094 C 70.648438 104.113281 70.601562 104.230469 70.519531 104.316406 L 52.917969 122.457031 C 52.828125 122.546875 52.707031 122.597656 52.582031 122.597656"/></g><path fill="#357371" d="M 70.648438 103.558594 L 52.109375 122.609375 L 52.109375 60.121094 L 70.648438 41.070312 L 70.648438 103.558594"/><path fill="#B4A497" d="M 71.175781 41.070312 L 52.632812 60.121094 L 52.632812 122.609375 L 61.09375 113.917969 L 61.097656 122.609375 L 79.636719 103.558594 L 79.636719 41.070312 L 71.175781 41.070312"/><g clip-path="url(#p)"><path fill="#469A97" d="M 63.890625 103.898438 L 63.890625 59.328125 L 80.5625 42.148438 L 80.5625 103.761719 L 80.425781 103.898438 L 81.492188 102.25 L 81.492188 41.003906 C 81.492188 40.8125 81.378906 40.640625 81.203125 40.570312 C 81.027344 40.5 80.824219 40.542969 80.691406 40.679688 L 63.089844 58.820312 C 63.007812 58.90625 62.960938 59.019531 62.960938 59.140625 L 62.960938 103.898438 L 63.890625 103.898438"/></g><path fill="#357371" d="M 81.492188 103.515625 L 62.953125 122.566406 L 62.953125 60.078125 L 81.492188 41.027344 L 81.492188 103.515625"/><path fill="#53B6B1" d="M 57.660156 60.773438 C 55.023438 60.773438 52.828125 60.097656 52.261719 59.191406 L 52.109375 59.191406 L 52.109375 122.140625 C 52.109375 123.265625 54.59375 124.179688 57.660156 124.179688 C 60.726562 124.179688 63.210938 123.265625 63.210938 122.140625 L 63.210938 59.191406 L 63.058594 59.191406 C 62.492188 60.097656 60.296875 60.773438 57.660156 60.773438"/><path fill="#1C3B3C" d="M 60.570312 77.664062 C 60.179688 79.261719 58.375 80.199219 56.542969 79.753906 C 54.707031 79.304688 53.535156 77.652344 53.929688 76.050781 C 54.320312 74.453125 56.125 73.519531 57.957031 73.964844 C 59.792969 74.410156 60.960938 76.066406 60.570312 77.664062"/><path fill="#1C3B3C" d="M 52.109375 64.816406 L 52.109375 69.523438 C 53.453125 70.097656 55.4375 70.460938 57.660156 70.460938 C 59.882812 70.460938 61.867188 70.097656 63.210938 69.523438 L 63.210938 64.816406 C 61.867188 65.390625 59.882812 65.753906 57.660156 65.753906 C 55.4375 65.753906 53.453125 65.390625 52.109375 64.816406"/><path fill="#1C3B3C" d="M 63.210938 120.28125 L 63.210938 118.972656 C 61.867188 119.546875 59.882812 119.910156 57.660156 119.910156 C 55.4375 119.910156 53.453125 119.546875 52.109375 118.972656 L 52.109375 120.277344 C 53.453125 120.851562 55.4375 121.21875 57.660156 121.21875 C 59.882812 121.21875 61.867188 120.851562 63.210938 120.28125"/><path fill="#1C3B3C" d="M 63.210938 118.289062 L 63.210938 116.984375 C 61.867188 117.558594 59.882812 117.921875 57.660156 117.921875 C 55.4375 117.921875 53.453125 117.558594 52.109375 116.984375 L 52.109375 118.289062 C 53.453125 118.863281 55.4375 119.226562 57.660156 119.226562 C 59.882812 119.226562 61.867188 118.863281 63.210938 118.289062"/><path fill="#1C3B3C" d="M 57.660156 117.238281 C 59.882812 117.238281 61.867188 116.875 63.210938 116.300781 L 63.210938 114.996094 C 61.867188 115.570312 59.882812 115.933594 57.660156 115.933594 C 55.4375 115.933594 53.453125 115.566406 52.109375 114.996094 L 52.109375 116.300781 C 53.453125 116.875 55.4375 117.238281 57.660156 117.238281"/><path fill="#C5700D" d="M 59.09375 74.296875 L 81.523438 124.398438 L 100.8125 104.679688 L 78.386719 54.578125 Z M 81.054688 126.011719 C 81 126.011719 80.9375 126 80.882812 125.976562 C 80.707031 125.910156 80.589844 125.734375 80.589844 125.546875 L 58.15625 75.042969 C 58.15625 74.921875 58.125 73.957031 58.210938 73.871094 L 78.515625 53.105469 C 78.648438 52.96875 78.851562 52.925781 79.027344 53 C 79.203125 53.070312 79.320312 53.242188 79.320312 53.429688 L 101.746094 104.871094 C 101.746094 104.988281 101.699219 105.105469 101.617188 105.191406 L 81.394531 125.871094 C 81.304688 125.960938 81.183594 126.011719 81.054688 126.011719"/><path fill="#593005" d="M 101.746094 104.4375 L 80.585938 126.023438 L 58.15625 75.042969 L 79.320312 53.453125 L 101.746094 104.4375"/><path fill="#B4A497" d="M 79.84375 53.453125 L 58.679688 75.042969 L 81.109375 126.023438 L 89.570312 117.332031 L 89.570312 126.023438 L 110.730469 104.4375 L 87.785156 50.804688 L 79.84375 53.453125"/><path fill="#F9AB0C" d="M 62.714844 74.980469 C 60.183594 75.710938 58.777344 74.777344 58.210938 73.871094 L 58.15625 75.816406 L 81.960938 129.214844 C 81.960938 129.214844 83.609375 130.445312 86.871094 129.421875 C 88.75 128.828125 91.683594 126.679688 91.683594 125.554688 L 67.757812 71.242188 L 67.597656 72.351562 C 67.03125 73.253906 65.96875 74.039062 62.714844 74.980469"/><path fill="#EEDEE1" d="M 70.917969 89.175781 C 70.527344 90.777344 68.726562 91.710938 66.890625 91.265625 C 65.054688 90.820312 63.886719 89.164062 64.277344 87.5625 C 64.667969 85.964844 66.472656 85.03125 68.308594 85.476562 C 70.140625 85.921875 71.3125 87.578125 70.917969 89.175781"/><path fill="#EEDEE1" d="M 59.25 78.125 L 61.589844 83.277344 C 61.417969 83.347656 64.261719 84.238281 66.4375 83.316406 C 70.300781 81.679688 71.355469 80.820312 72.171875 80.273438 L 69.835938 75.632812 C 69.457031 75.953125 68.09375 77.851562 64.925781 78.859375 C 60.476562 80.273438 59.25 78.125 59.25 78.125"/><path fill="#EEDEE1" d="M 86.683594 114.199219 C 84.414062 116.039062 80.414062 117.257812 76.871094 117.800781 L 77.847656 119.988281 C 81.304688 119.425781 85.171875 118.105469 87.789062 116.707031 L 86.683594 114.199219"/><path fill="#EEDEE1" d="M 89.820312 121.324219 C 87.152344 122.601562 83.410156 123.984375 79.824219 124.417969 L 80.820312 126.65625 C 84.605469 126.390625 88.242188 125.003906 90.84375 123.648438 L 89.820312 121.324219"/><path fill="#EEDEE1" d="M 89.335938 120.222656 L 88.449219 118.214844 C 85.71875 119.425781 81.8125 120.628906 78.351562 121.117188 L 79.285156 123.210938 C 82.699219 122.742188 86.550781 121.492188 89.335938 120.222656"/><path fill="#C5700D" d="M 92.367188 107.3125 L 68.539062 71.601562 L 87.828125 51.886719 L 111.65625 104.636719 L 111.523438 104.777344 L 111.679688 104.117188 L 88.761719 50.738281 C 88.761719 50.546875 88.644531 50.378906 88.46875 50.308594 C 88.292969 50.238281 88.09375 50.277344 87.960938 50.414062 L 67.734375 71.09375 C 66.941406 71.882812 67.597656 72.230469 67.597656 72.351562 L 91.433594 107.3125 L 92.367188 107.3125"/><g clip-path="url(#q)"><path fill="#F89C0E" d="M 112.589844 104.390625 L 91.425781 125.980469 L 67.597656 72.351562 L 88.761719 50.761719 L 112.589844 104.390625"/></g><g fill="#FFF"><use x="116.095" y="57.369" xmlns:xlink="http://www.w3.org/1999/xlink" xlink:href="#r" xlink:type="simple" xlink:actuate="onLoad" xlink:show="embed"/></g><g fill="#FFF"><use x="130.779" y="57.369" xmlns:xlink="http://www.w3.org/1999/xlink" xlink:href="#s" xlink:type="simple" xlink:actuate="onLoad" xlink:show="embed"/></g><g fill="#FFF"><use x="145.602" y="57.369" xmlns:xlink="http://www.w3.org/1999/xlink" xlink:href="#t" xlink:type="simple" xlink:actuate="onLoad" xlink:show="embed"/></g><g fill="#FFF"><use x="156.607" y="57.369" xmlns:xlink="http://www.w3.org/1999/xlink" xlink:href="#u" xlink:type="simple" xlink:actuate="onLoad" xlink:show="embed"/></g><g fill="#FFF"><use x="166.378" y="57.369" xmlns:xlink="http://www.w3.org/1999/xlink" xlink:href="#v" xlink:type="simple" xlink:actuate="onLoad" xlink:show="embed"/></g><g fill="#FFF"><use x="180.134" y="57.369" xmlns:xlink="http://www.w3.org/1999/xlink" xlink:href="#w" xlink:type="simple" xlink:actuate="onLoad" xlink:show="embed"/></g><g fill="#FFF"><use x="116.095" y="90.351" xmlns:xlink="http://www.w3.org/1999/xlink" xlink:href="#x" xlink:type="simple" xlink:actuate="onLoad" xlink:show="embed"/></g><g fill="#FFF"><use x="129.992" y="90.351" xmlns:xlink="http://www.w3.org/1999/xlink" xlink:href="#y" xlink:type="simple" xlink:actuate="onLoad" xlink:show="embed"/></g><g fill="#FFF"><use x="145.013" y="90.351" xmlns:xlink="http://www.w3.org/1999/xlink" xlink:href="#z" xlink:type="simple" xlink:actuate="onLoad" xlink:show="embed"/></g><g fill="#FFF"><use x="152.621" y="90.351" xmlns:xlink="http://www.w3.org/1999/xlink" xlink:href="#A" xlink:type="simple" xlink:actuate="onLoad" xlink:show="embed"/></g><g fill="#FFF"><use x="160.229" y="90.351" xmlns:xlink="http://www.w3.org/1999/xlink" xlink:href="#y" xlink:type="simple" xlink:actuate="onLoad" xlink:show="embed"/></g><g fill="#FFF"><use x="175.249" y="90.351" xmlns:xlink="http://www.w3.org/1999/xlink" xlink:href="#B" xlink:type="simple" xlink:actuate="onLoad" xlink:show="embed"/></g><g fill="#FFF"><use x="116.095" y="123.334" xmlns:xlink="http://www.w3.org/1999/xlink" xlink:href="#z" xlink:type="simple" xlink:actuate="onLoad" xlink:show="embed"/></g><g fill="#FFF"><use x="123.704" y="123.334" xmlns:xlink="http://www.w3.org/1999/xlink" xlink:href="#A" xlink:type="simple" xlink:actuate="onLoad" xlink:show="embed"/></g><g fill="#FFF"><use x="131.312" y="123.334" xmlns:xlink="http://www.w3.org/1999/xlink" xlink:href="#C" xlink:type="simple" xlink:actuate="onLoad" xlink:show="embed"/></g><g fill="#FFF"><use x="146.136" y="123.334" xmlns:xlink="http://www.w3.org/1999/xlink" xlink:href="#D" xlink:type="simple" xlink:actuate="onLoad" xlink:show="embed"/></g><g fill="#FFF"><use x="156.214" y="123.334" xmlns:xlink="http://www.w3.org/1999/xlink" xlink:href="#v" xlink:type="simple" xlink:actuate="onLoad" xlink:show="embed"/></g><g fill="#FFF"><use x="169.971" y="123.334" xmlns:xlink="http://www.w3.org/1999/xlink" xlink:href="#D" xlink:type="simple" xlink:actuate="onLoad" xlink:show="embed"/></g><g fill="#FFF"><use x="180.05" y="123.334" xmlns:xlink="http://www.w3.org/1999/xlink" xlink:href="#E" xlink:type="simple" xlink:actuate="onLoad" xlink:show="embed"/></g></svg>